<svg width="43" height="42" viewBox="0 0 43 42" fill="none" xmlns="http://www.w3.org/2000/svg">
<g clip-path="url(#clip0_320_450)">
<path d="M23.3166 27.5244H18.668C17.9139 27.5244 17.3008 28.1232 17.3008 28.8599V33.4003C17.3008 34.137 17.9139 34.7358 18.668 34.7358H23.3166C24.0708 34.7358 24.6838 34.137 24.6838 33.4003V28.8599C24.6838 28.1232 24.0708 27.5244 23.3166 27.5244ZM22.8186 32.9147H19.1652V29.3463H22.8186V32.9147Z" fill="#A39E98"/>
<path d="M11.7189 27.5244H7.07039C6.31621 27.5244 5.70312 28.1232 5.70312 28.8599V33.4003C5.70312 34.137 6.31621 34.7358 7.07039 34.7358H11.7189C12.4731 34.7358 13.0862 34.137 13.0862 33.4003V28.8599C13.0862 28.1232 12.4731 27.5244 11.7189 27.5244ZM11.2217 32.9147H7.56842V29.3463H11.2217V32.9147Z" fill="#A39E98"/>
<path d="M6.98836 24.4117H11.6369C12.3911 24.4117 13.0042 23.8129 13.0042 23.0762V18.5358C13.0042 17.7991 12.3911 17.2003 11.6369 17.2003H6.98836C6.23418 17.2003 5.62109 17.7991 5.62109 18.5358V23.0762C5.62109 23.8129 6.23418 24.4117 6.98836 24.4117ZM7.48555 19.0222H11.1389V22.5906H7.48555V19.0222Z" fill="#A39E98"/>
<path d="M30.1798 24.4117H34.8283C35.5825 24.4117 36.1956 23.8129 36.1956 23.0762V18.5358C36.1956 17.7991 35.5825 17.2003 34.8283 17.2003H30.1798C29.4256 17.2003 28.8125 17.7991 28.8125 18.5358V23.0762C28.8125 23.8129 29.4256 24.4117 30.1798 24.4117ZM30.6778 19.0222H34.3311V22.5906H30.6778V19.0222Z" fill="#A39E98"/>
<path d="M18.586 24.4117H23.2345C23.9887 24.4117 24.6018 23.8129 24.6018 23.0762V18.5358C24.6018 17.7991 23.9887 17.2003 23.2345 17.2003H18.586C17.8318 17.2003 17.2188 17.7991 17.2188 18.5358V23.0762C17.2188 23.8129 17.8318 24.4117 18.586 24.4117ZM19.0832 19.0222H22.7365V22.5906H19.0832V19.0222Z" fill="#A39E98"/>
<path d="M42.811 32.0059V8.66961C42.811 6.68445 41.1574 5.06926 39.125 5.06926H36.1729V3.96594C36.1729 2.11941 34.6343 0.616602 32.7438 0.616602H32.4591C30.5686 0.616602 29.03 2.11941 29.03 3.96594V5.06926H24.977V3.73215C24.977 1.88563 23.4384 0.382812 21.5479 0.382812H21.2632C19.3727 0.382812 17.8341 1.88563 17.8341 3.73215V5.06926H13.781V3.88801C13.781 2.04148 12.2424 0.538672 10.3519 0.538672H10.0672C8.17672 0.538672 6.63813 2.04148 6.63813 3.88801V5.06926H3.68607C1.65365 5.06926 0 6.68445 0 8.66961V35.8416C0 37.8268 1.65365 39.442 3.68607 39.442C3.68607 39.442 29.256 39.4362 29.3131 39.4256C30.7677 40.7832 32.7371 41.6175 34.9031 41.6175C39.3677 41.6175 43.0008 38.0696 43.0008 33.708C43.0008 33.1239 42.9353 32.5546 42.8119 32.0059H42.811ZM30.8945 3.96594C30.8945 3.12348 31.5958 2.43852 32.4583 2.43852H32.743C33.6055 2.43852 34.3068 3.12348 34.3068 3.96594V5.06926H30.8937V3.96594H30.8945ZM19.6985 3.73133C19.6985 2.88887 20.3998 2.20391 21.2623 2.20391H21.547C22.4096 2.20391 23.1108 2.88887 23.1108 3.73133V5.06844H19.6977V3.73133H19.6985ZM8.50258 3.88801C8.50258 3.04555 9.20385 2.36059 10.0664 2.36059H10.3511C11.2136 2.36059 11.9149 3.04555 11.9149 3.88801V5.06926H8.50174V3.88801H8.50258ZM3.68607 6.89117H11.9157V7.60402C11.9157 8.44648 11.2144 9.13145 10.3519 9.13145C9.83709 9.13145 9.41969 9.53914 9.41969 10.042C9.41969 10.5448 9.83709 10.9525 10.3519 10.9525C12.2424 10.9525 13.781 9.44973 13.781 7.6032V6.89035H23.1117V7.44652C23.1117 8.28898 22.4104 8.97395 21.5479 8.97395C21.033 8.97395 20.6156 9.38164 20.6156 9.88449C20.6156 10.3873 21.033 10.795 21.5479 10.795C23.4384 10.795 24.977 9.29223 24.977 7.4457V6.88953H34.3076V7.68031C34.3076 8.52277 33.6063 9.20773 32.7438 9.20773C32.229 9.20773 31.8116 9.61543 31.8116 10.1183C31.8116 10.6211 32.229 11.0288 32.7438 11.0288C34.6343 11.0288 36.1729 9.52602 36.1729 7.67949V6.88871H39.125C40.1286 6.88871 40.9457 7.68688 40.9457 8.66715V12.5202H1.86529V8.66715C1.86529 7.68688 2.68246 6.88871 3.68607 6.88871V6.89117ZM1.86529 35.8416V14.3437H40.9457V28.449C39.4617 26.8239 37.3025 25.7977 34.9031 25.7977C30.4385 25.7977 26.8053 29.3456 26.8053 33.7072C26.8053 35.1296 27.1916 36.4651 27.8677 37.6193H3.68607C2.68246 37.6193 1.86529 36.8211 1.86529 35.8408V35.8416ZM34.9022 39.7955C31.4656 39.7955 28.6697 37.0647 28.6697 33.708C28.6697 30.3513 31.4656 27.6205 34.9022 27.6205C37.8274 27.6205 40.2865 29.5991 40.9541 32.2577C40.9617 32.3159 40.9751 32.3725 40.9945 32.4267C41.0852 32.8401 41.1347 33.2683 41.1347 33.708C41.1347 37.0647 38.3389 39.7955 34.9022 39.7955Z" fill="#A39E98"/>
<path d="M38.5896 32.7971H35.8332V30.1049C35.8332 29.602 35.4158 29.1943 34.901 29.1943C34.3862 29.1943 33.9688 29.602 33.9688 30.1049V33.7077C33.9688 34.2105 34.3862 34.6182 34.901 34.6182H38.5896C39.1044 34.6182 39.5218 34.2105 39.5218 33.7077C39.5218 33.2048 39.1044 32.7971 38.5896 32.7971Z" fill="#A39E98"/>
</g>
<defs>
<clipPath id="clip0_320_450">
<rect width="43" height="42" fill="white"/>
</clipPath>
</defs>
</svg>
