<svg width="30" height="30" viewBox="0 0 30 30" fill="none" xmlns="http://www.w3.org/2000/svg">
<path d="M6.7077 3.9327L11.347 8.57199H3.31127C3.47525 7.58699 3.86794 6.65417 4.4578 5.84846C5.04767 5.04274 5.81826 4.38659 6.7077 3.9327ZM12.9434 3.21484H9.64342C9.43984 3.21484 9.23627 3.22556 9.0327 3.23627L14.3684 8.57199H18.3006L12.9434 3.21484ZM20.3577 3.21484H15.9863L21.3434 8.57199H26.6898C26.4388 7.07421 25.6648 5.71396 24.5054 4.73308C23.346 3.7522 21.8764 3.21424 20.3577 3.21484ZM13.374 21.0284L18.7312 18.082C18.8994 17.9897 19.0397 17.8539 19.1374 17.6888C19.2352 17.5236 19.2868 17.3353 19.2868 17.1434C19.2868 16.9515 19.2352 16.7632 19.1374 16.5981C19.0397 16.433 18.8994 16.2971 18.7312 16.2048L13.374 13.2584C13.2109 13.1687 13.0272 13.123 12.8411 13.1259C12.6549 13.1288 12.4727 13.1802 12.3125 13.2749C12.1522 13.3696 12.0194 13.5045 11.9271 13.6662C11.8349 13.8279 11.7863 14.0108 11.7863 14.197V20.0898C11.7863 20.276 11.8349 20.459 11.9271 20.6206C12.0194 20.7823 12.1522 20.9172 12.3125 21.0119C12.4727 21.1067 12.6549 21.158 12.8411 21.1609C13.0272 21.1638 13.2109 21.1181 13.374 21.0284ZM26.7863 10.7148V20.3577C26.7849 22.0622 26.1072 23.6966 24.9019 24.9019C23.6966 26.1072 22.0622 26.7849 20.3577 26.7863H9.64342C7.93887 26.7849 6.30453 26.1072 5.09923 24.9019C3.89394 23.6966 3.21621 22.0622 3.21484 20.3577V10.7148H26.7863Z" fill="white"/>
</svg>
