<svg width="18" height="18" viewBox="0 0 18 18" fill="none" xmlns="http://www.w3.org/2000/svg">
<path d="M17.2503 14.5551L11.5995 8.90426L17.2503 3.2534C17.9945 2.50919 17.9946 1.30254 17.2504 0.55823C16.506 -0.186077 15.2994 -0.185981 14.5553 0.55823L8.9043 6.20909L3.25335 0.55823C2.50924 -0.186077 1.30239 -0.186077 0.558182 0.55823C-0.186029 1.30254 -0.186029 2.50919 0.558278 3.2534L6.20914 8.90426L0.558278 14.5551C-0.186029 15.2994 -0.186125 16.5061 0.558182 17.2503C1.30268 17.9947 2.50933 17.9944 3.25335 17.2503L8.9043 11.5994L14.5553 17.2503C15.2993 17.9945 16.5061 17.9946 17.2504 17.2503C17.9947 16.506 17.9946 15.2993 17.2503 14.5551Z" fill="white"/>
</svg>
