<svg width="27" height="28" viewBox="0 0 27 28" fill="none" xmlns="http://www.w3.org/2000/svg">
<g clip-path="url(#clip0_207_4559)">
<path d="M19.4063 0C19.3017 0 9.28125 0 9.28125 0C7.49586 0 5.90626 1.69839 5.90626 3.50002L4.93088 3.52364C3.14634 3.52364 1.6875 5.19837 1.6875 7V24.5C1.6875 26.3017 3.27713 28 5.06252 28H17.7188C19.5041 28 21.0938 26.3017 21.0938 24.5H21.9375C23.7229 24.5 25.3125 22.8017 25.3125 21V7.02102L19.4063 0ZM17.7188 26.2501H5.06252C4.17658 26.2501 3.37503 25.3917 3.37503 24.5V7C3.37503 6.10839 4.09644 5.27887 4.98238 5.27887L5.90626 5.25001V21C5.90626 22.8017 7.49586 24.5 9.28125 24.5H19.4063C19.4063 25.3917 18.6047 26.2501 17.7188 26.2501ZM23.625 21C23.625 21.8916 22.8234 22.75 21.9375 22.75H9.28125C8.39531 22.75 7.59376 21.8917 7.59376 21V3.50002C7.59376 2.60841 8.39531 1.75003 9.28125 1.75003H17.7188C17.7052 3.76516 17.7188 5.27191 17.7188 5.27191C17.7188 7.09015 19.2966 8.75003 21.0938 8.75003C21.0938 8.75003 21.9898 8.75003 23.625 8.75003V21ZM21.0938 7C20.1952 7 19.4063 5.3069 19.4063 4.39863C19.4063 4.39863 19.4063 3.47812 19.4063 1.77713V1.77537L23.625 7H21.0938ZM19.4063 12.2658H11.8125C11.3468 12.2658 10.9688 12.6569 10.9688 13.1399C10.9688 13.6229 11.3468 14.014 11.8125 14.014H19.4063C19.872 14.014 20.25 13.6229 20.25 13.1399C20.25 12.6569 19.872 12.2658 19.4063 12.2658ZM19.4063 16.6364H11.8125C11.3468 16.6364 10.9688 17.0275 10.9688 17.5105C10.9688 17.9935 11.3468 18.3846 11.8125 18.3846H19.4063C19.872 18.3846 20.25 17.9935 20.25 17.5105C20.25 17.0275 19.872 16.6364 19.4063 16.6364Z" fill="#797979"/>
</g>
<defs>
<clipPath id="clip0_207_4559">
<rect width="27" height="28" fill="white"/>
</clipPath>
</defs>
</svg>
