<svg width="27" height="28" viewBox="0 0 27 28" fill="none" xmlns="http://www.w3.org/2000/svg">
<g clip-path="url(#clip0_333_64)">
<path d="M19.4063 0C19.3017 0 9.28125 0 9.28125 0C7.49586 0 5.90626 1.69153 5.90626 3.48589L4.93088 3.50941C3.14634 3.50941 1.6875 5.17737 1.6875 6.97173V24.4011C1.6875 26.1954 3.27713 27.8869 5.06252 27.8869H17.7188C19.5041 27.8869 21.0938 26.1954 21.0938 24.4011H21.9375C23.7229 24.4011 25.3125 22.7096 25.3125 20.9152V6.99266L19.4063 0ZM17.7188 26.144H5.06252C4.17658 26.144 3.37503 25.2892 3.37503 24.4011V6.97173C3.37503 6.08372 4.09644 5.25756 4.98238 5.25756L5.90626 5.22881V20.9152C5.90626 22.7096 7.49586 24.4011 9.28125 24.4011H19.4063C19.4063 25.2891 18.6047 26.144 17.7188 26.144ZM23.625 20.9152C23.625 21.8032 22.8234 22.6581 21.9375 22.6581H9.28125C8.39531 22.6581 7.59376 21.8032 7.59376 20.9152V3.48589C7.59376 2.59788 8.39531 1.74296 9.28125 1.74296H17.7188C17.7052 3.74995 17.7188 5.25062 17.7188 5.25062C17.7188 7.06152 19.2966 8.71469 21.0938 8.71469C21.0938 8.71469 21.9898 8.71469 23.625 8.71469V20.9152ZM21.0938 6.97173C20.1952 6.97173 19.4063 5.28547 19.4063 4.38087C19.4063 4.38087 19.4063 3.46408 19.4063 1.76996V1.7682L23.625 6.97173H21.0938ZM19.4063 12.2163H11.8125C11.3468 12.2163 10.9688 12.6058 10.9688 13.0868C10.9688 13.5679 11.3468 13.9574 11.8125 13.9574H19.4063C19.872 13.9574 20.25 13.5678 20.25 13.0868C20.25 12.6058 19.872 12.2163 19.4063 12.2163ZM19.4063 16.5692H11.8125C11.3468 16.5692 10.9688 16.9588 10.9688 17.4398C10.9688 17.9208 11.3468 18.3104 11.8125 18.3104H19.4063C19.872 18.3104 20.25 17.9208 20.25 17.4398C20.25 16.9588 19.872 16.5692 19.4063 16.5692Z" fill="white"/>
</g>
<defs>
<clipPath id="clip0_333_64">
<rect width="27" height="27.8869" fill="white"/>
</clipPath>
</defs>
</svg>
