<svg width="21" height="22" viewBox="0 0 21 22" fill="none" xmlns="http://www.w3.org/2000/svg">
<path fill-rule="evenodd" clip-rule="evenodd" d="M11.7577 3.91713C11.1686 2.97294 9.83141 2.97293 9.24228 3.91713L6.26777 8.68399L3.99418 7.33451C2.85514 6.65843 1.48562 7.71796 1.79416 9.03654L3.33878 15.6375C3.40833 15.9348 3.66594 16.1442 3.96207 16.1442H17.0379C17.3341 16.1442 17.5917 15.9348 17.6613 15.6375L19.2058 9.03654C19.5144 7.71795 18.1449 6.65844 17.0058 7.33451L14.7322 8.68399L11.7577 3.91713ZM10.6796 4.63424C10.5956 4.49936 10.4045 4.49936 10.3204 4.63423L7.0157 9.93017C6.83072 10.2266 6.45317 10.3213 6.15708 10.1456L3.35503 8.48244C3.19231 8.38586 2.99666 8.53722 3.04074 8.72558L4.46682 14.82H16.5332L17.9593 8.72558C18.0033 8.53722 17.8077 8.38586 17.645 8.48244L14.8429 10.1456C14.5468 10.3213 14.1693 10.2266 13.9843 9.93017L10.6796 4.63424Z" fill="#1D73BE"/>
<path d="M4.51623 17.4668C4.16209 17.4668 3.875 17.7632 3.875 18.1289C3.875 18.4945 4.16209 18.7909 4.51623 18.7909H16.4857C16.8398 18.7909 17.1269 18.4945 17.1269 18.1289C17.1269 17.7632 16.8398 17.4668 16.4857 17.4668H4.51623Z" fill="#1D73BE"/>
</svg>
