<svg width="29" height="22" viewBox="0 0 29 22" fill="none" xmlns="http://www.w3.org/2000/svg">
<path d="M18.1003 11.1193L19.7474 9.47218C19.8673 9.92055 19.9375 10.3893 19.9375 10.8751C19.9375 13.8734 17.4983 16.3126 14.5 16.3126C14.0142 16.3126 13.5455 16.2423 13.0971 16.1225L14.7442 14.4754C16.5452 14.3526 17.9775 12.9202 18.1003 11.1193ZM28.8858 10.4348C28.7743 10.2343 27.1934 7.46416 24.1031 5.11652L22.7843 6.43534C25.0376 8.09219 26.4654 10.0245 27.0275 10.8764C25.9534 12.512 21.7398 18.1251 14.5 18.1251C13.4143 18.1251 12.4047 17.9862 11.4548 17.7646L9.96558 19.2538C11.3347 19.6736 12.8395 19.9376 14.5 19.9376C23.9869 19.9376 28.6903 11.6671 28.8858 11.3153C29.0381 11.0414 29.0381 10.7088 28.8858 10.4348ZM25.1095 1.54702L5.17197 21.4845C4.99502 21.6615 4.76302 21.7501 4.53125 21.7501C4.29948 21.7501 4.06748 21.6615 3.89053 21.4845C3.53641 21.1304 3.53641 20.557 3.89053 20.2031L6.42712 17.6665C2.32634 15.1908 0.242648 11.5466 0.114188 11.3153C-0.0380625 11.0414 -0.0380625 10.7085 0.114188 10.4346C0.309711 10.083 5.01315 1.81256 14.5 1.81256C16.953 1.81256 19.0777 2.37217 20.894 3.19957L23.828 0.265588C24.1821 -0.0885293 24.7556 -0.0885293 25.1095 0.265588C25.4634 0.619705 25.4636 1.19313 25.1095 1.54702ZM7.77857 16.3151L10.073 14.0207C9.43927 13.1316 9.0625 12.0475 9.0625 10.8751C9.0625 7.87673 11.5017 5.43756 14.5 5.43756C15.6725 5.43756 16.7566 5.81433 17.6456 6.4478L19.5009 4.59248C18.0351 4.00546 16.3694 3.62506 14.5 3.62506C7.2602 3.62506 3.04659 9.23814 1.97268 10.8737C2.65463 11.9073 4.61485 14.5236 7.77857 16.3151ZM11.3886 12.7048L16.3297 7.76367C15.7907 7.44535 15.1702 7.25006 14.5 7.25006C12.5013 7.25006 10.875 8.87632 10.875 10.8751C10.875 11.5452 11.0703 12.1658 11.3886 12.7048Z" fill="white"/>
</svg>
