<svg width="29" height="29" viewBox="0 0 29 29" fill="none" xmlns="http://www.w3.org/2000/svg">
<g clip-path="url(#clip0_207_4268)">
<path d="M18.1003 14.7443L19.7474 13.0972C19.8673 13.5455 19.9375 14.0143 19.9375 14.5001C19.9375 17.4984 17.4983 19.9376 14.5 19.9376C14.0142 19.9376 13.5455 19.8673 13.0971 19.7475L14.7442 18.1004C16.5452 17.9776 17.9775 16.5452 18.1003 14.7443ZM28.8858 14.0598C28.7743 13.8593 27.1934 11.0892 24.1031 8.74152L22.7843 10.0603C25.0376 11.7172 26.4654 13.6495 27.0275 14.5014C25.9534 16.137 21.7398 21.7501 14.5 21.7501C13.4143 21.7501 12.4047 21.6112 11.4548 21.3896L9.96558 22.8788C11.3347 23.2986 12.8395 23.5626 14.5 23.5626C23.9869 23.5626 28.6903 15.2921 28.8858 14.9403C29.0381 14.6664 29.0381 14.3338 28.8858 14.0598ZM25.1095 5.17202L5.17197 25.1095C4.99502 25.2865 4.76302 25.3751 4.53125 25.3751C4.29948 25.3751 4.06748 25.2865 3.89053 25.1095C3.53641 24.7554 3.53641 24.182 3.89053 23.8281L6.42713 21.2915C2.32634 18.8158 0.242648 15.1716 0.114188 14.9403C-0.0380625 14.6664 -0.0380625 14.3335 0.114188 14.0596C0.309711 13.708 5.01315 5.43756 14.5 5.43756C16.953 5.43756 19.0777 5.99717 20.894 6.82457L23.828 3.89059C24.1821 3.53647 24.7556 3.53647 25.1095 3.89059C25.4634 4.24471 25.4636 4.81813 25.1095 5.17202ZM7.77857 19.94L10.073 17.6457C9.43927 16.7566 9.0625 15.6725 9.0625 14.5001C9.0625 11.5017 11.5017 9.06256 14.5 9.06256C15.6725 9.06256 16.7566 9.43933 17.6456 10.0728L19.5009 8.21748C18.0351 7.63046 16.3694 7.25006 14.5 7.25006C7.2602 7.25006 3.04659 12.8631 1.97268 14.4987C2.65463 15.5323 4.61485 18.1486 7.77857 19.94ZM11.3886 16.3298L16.3297 11.3887C15.7907 11.0704 15.1702 10.8751 14.5 10.8751C12.5013 10.8751 10.875 12.5013 10.875 14.5001C10.875 15.1702 11.0703 15.7908 11.3886 16.3298Z" fill="#797979"/>
</g>
<defs>
<clipPath id="clip0_207_4268">
<rect width="29" height="29" fill="white"/>
</clipPath>
</defs>
</svg>
