<svg width="41" height="42" viewBox="0 0 41 42" fill="none" xmlns="http://www.w3.org/2000/svg">
<path fill-rule="evenodd" clip-rule="evenodd" d="M26.7375 32.0458L29.2559 34.583C29.6034 34.9331 30.1676 34.9331 30.5151 34.583L35.5519 29.5086C35.8994 29.1585 35.8994 28.5901 35.5519 28.24C35.2044 27.8899 34.6402 27.8899 34.2927 28.24L29.8855 32.6801L27.9967 30.7772C27.6492 30.4271 27.085 30.4271 26.7375 30.7772C26.39 31.1273 26.39 31.6957 26.7375 32.0458Z" fill="#A39E98"/>
<path fill-rule="evenodd" clip-rule="evenodd" d="M10.6838 16.3285C10.6838 15.8055 10.4772 15.3031 10.1103 14.9326C9.74258 14.563 9.24393 14.3549 8.72479 14.3549H7.30006C6.78093 14.3549 6.28227 14.563 5.91451 14.9326C5.54765 15.3031 5.34106 15.8055 5.34106 16.3285V17.7639C5.34106 18.2869 5.54765 18.7892 5.91451 19.1597C6.28227 19.5294 6.78093 19.7375 7.30006 19.7375H8.72479C9.24393 19.7375 9.74258 19.5294 10.1103 19.1597C10.4772 18.7892 10.6838 18.2869 10.6838 17.7639V16.3285ZM8.90288 16.3285V17.7639C8.90288 17.8114 8.88418 17.8572 8.85034 17.8903C8.81739 17.9244 8.77199 17.9433 8.72479 17.9433H7.30006C7.25287 17.9433 7.20746 17.9244 7.17452 17.8903C7.14068 17.8572 7.12197 17.8114 7.12197 17.7639V16.3285C7.12197 16.2809 7.14068 16.2352 7.17452 16.202C7.20746 16.1679 7.25287 16.1491 7.30006 16.1491H8.72479C8.77199 16.1491 8.81739 16.1679 8.85034 16.202C8.88418 16.2352 8.90288 16.2809 8.90288 16.3285Z" fill="#A39E98"/>
<path fill-rule="evenodd" clip-rule="evenodd" d="M10.6838 23.5054C10.6838 22.9824 10.4772 22.48 10.1103 22.1095C9.74258 21.7399 9.24393 21.5317 8.72479 21.5317H7.30006C6.78093 21.5317 6.28227 21.7399 5.91451 22.1095C5.54765 22.48 5.34106 22.9824 5.34106 23.5054V24.9407C5.34106 25.4637 5.54765 25.9661 5.91451 26.3366C6.28227 26.7062 6.78093 26.9144 7.30006 26.9144H8.72479C9.24393 26.9144 9.74258 26.7062 10.1103 26.3366C10.4772 25.9661 10.6838 25.4637 10.6838 24.9407V23.5054ZM8.90288 23.5054V24.9407C8.90288 24.9883 8.88418 25.034 8.85034 25.0672C8.81739 25.1013 8.77199 25.1202 8.72479 25.1202H7.30006C7.25287 25.1202 7.20746 25.1013 7.17452 25.0672C7.14068 25.034 7.12197 24.9883 7.12197 24.9407V23.5054C7.12197 23.4578 7.14068 23.4121 7.17452 23.3789C7.20746 23.3448 7.25287 23.3259 7.30006 23.3259H8.72479C8.77199 23.3259 8.81739 23.3448 8.85034 23.3789C8.88418 23.4121 8.90288 23.4578 8.90288 23.5054Z" fill="#A39E98"/>
<path fill-rule="evenodd" clip-rule="evenodd" d="M10.6838 30.6833C10.6838 30.1603 10.4772 29.6579 10.1103 29.2874C9.74258 28.9178 9.24393 28.7097 8.72479 28.7097H7.30006C6.78093 28.7097 6.28227 28.9178 5.91451 29.2874C5.54765 29.6579 5.34106 30.1603 5.34106 30.6833V32.1187C5.34106 32.6417 5.54765 33.1441 5.91451 33.5146C6.28227 33.8842 6.78093 34.0923 7.30006 34.0923H8.72479C9.24393 34.0923 9.74258 33.8842 10.1103 33.5146C10.4772 33.1441 10.6838 32.6417 10.6838 32.1187V30.6833ZM8.90288 30.6833V32.1187C8.90288 32.1662 8.88418 32.212 8.85034 32.2452C8.81739 32.2793 8.77199 32.2981 8.72479 32.2981H7.30006C7.25287 32.2981 7.20746 32.2793 7.17452 32.2452C7.14068 32.212 7.12197 32.1662 7.12197 32.1187V30.6833C7.12197 30.6358 7.14068 30.59 7.17452 30.5568C7.20746 30.5227 7.25287 30.5039 7.30006 30.5039H8.72479C8.77199 30.5039 8.81739 30.5227 8.85034 30.5568C8.88418 30.59 8.90288 30.6358 8.90288 30.6833Z" fill="#A39E98"/>
<path fill-rule="evenodd" clip-rule="evenodd" d="M17.812 16.3285C17.812 15.8055 17.6054 15.3031 17.2385 14.9326C16.8708 14.563 16.3721 14.3549 15.853 14.3549H14.4282C13.9091 14.3549 13.4104 14.563 13.0427 14.9326C12.6758 15.3031 12.4692 15.8055 12.4692 16.3285V17.7639C12.4692 18.2869 12.6758 18.7892 13.0427 19.1597C13.4104 19.5294 13.9091 19.7375 14.4282 19.7375H15.853C16.3721 19.7375 16.8708 19.5294 17.2385 19.1597C17.6054 18.7892 17.812 18.2869 17.812 17.7639V16.3285ZM16.0311 16.3285V17.7639C16.0311 17.8114 16.0124 17.8572 15.9785 17.8903C15.9456 17.9244 15.9002 17.9433 15.853 17.9433H14.4282C14.381 17.9433 14.3356 17.9244 14.3027 17.8903C14.2689 17.8572 14.2501 17.8114 14.2501 17.7639V16.3285C14.2501 16.2809 14.2689 16.2352 14.3027 16.202C14.3356 16.1679 14.381 16.1491 14.4282 16.1491H15.853C15.9002 16.1491 15.9456 16.1679 15.9785 16.202C16.0124 16.2352 16.0311 16.2809 16.0311 16.3285Z" fill="#A39E98"/>
<path fill-rule="evenodd" clip-rule="evenodd" d="M17.812 23.5054C17.812 22.9824 17.6054 22.48 17.2385 22.1095C16.8708 21.7399 16.3721 21.5317 15.853 21.5317H14.4282C13.9091 21.5317 13.4104 21.7399 13.0427 22.1095C12.6758 22.48 12.4692 22.9824 12.4692 23.5054V24.9407C12.4692 25.4637 12.6758 25.9661 13.0427 26.3366C13.4104 26.7062 13.9091 26.9144 14.4282 26.9144H15.853C16.3721 26.9144 16.8708 26.7062 17.2385 26.3366C17.6054 25.9661 17.812 25.4637 17.812 24.9407V23.5054ZM16.0311 23.5054V24.9407C16.0311 24.9883 16.0124 25.034 15.9785 25.0672C15.9456 25.1013 15.9002 25.1202 15.853 25.1202H14.4282C14.381 25.1202 14.3356 25.1013 14.3027 25.0672C14.2689 25.034 14.2501 24.9883 14.2501 24.9407V23.5054C14.2501 23.4578 14.2689 23.4121 14.3027 23.3789C14.3356 23.3448 14.381 23.3259 14.4282 23.3259H15.853C15.9002 23.3259 15.9456 23.3448 15.9785 23.3789C16.0124 23.4121 16.0311 23.4578 16.0311 23.5054Z" fill="#A39E98"/>
<path fill-rule="evenodd" clip-rule="evenodd" d="M17.812 30.6833C17.812 30.1603 17.6054 29.6579 17.2385 29.2874C16.8708 28.9178 16.3721 28.7097 15.853 28.7097H14.4282C13.9091 28.7097 13.4104 28.9178 13.0427 29.2874C12.6758 29.6579 12.4692 30.1603 12.4692 30.6833V32.1187C12.4692 32.6417 12.6758 33.1441 13.0427 33.5146C13.4104 33.8842 13.9091 34.0923 14.4282 34.0923H15.853C16.3721 34.0923 16.8708 33.8842 17.2385 33.5146C17.6054 33.1441 17.812 32.6417 17.812 32.1187V30.6833ZM16.0311 30.6833V32.1187C16.0311 32.1662 16.0124 32.212 15.9785 32.2452C15.9456 32.2793 15.9002 32.2981 15.853 32.2981H14.4282C14.381 32.2981 14.3356 32.2793 14.3027 32.2452C14.2689 32.212 14.2501 32.1662 14.2501 32.1187V30.6833C14.2501 30.6358 14.2689 30.59 14.3027 30.5568C14.3356 30.5227 14.381 30.5039 14.4282 30.5039H15.853C15.9002 30.5039 15.9456 30.5227 15.9785 30.5568C16.0124 30.59 16.0311 30.6358 16.0311 30.6833Z" fill="#A39E98"/>
<path fill-rule="evenodd" clip-rule="evenodd" d="M24.937 16.3285C24.937 15.8055 24.7304 15.3031 24.3635 14.9326C23.9958 14.563 23.4971 14.3549 22.978 14.3549H21.5532C21.0341 14.3549 20.5354 14.563 20.1677 14.9326C19.8008 15.3031 19.5942 15.8055 19.5942 16.3285V17.7639C19.5942 18.2869 19.8008 18.7892 20.1677 19.1597C20.5354 19.5294 21.0341 19.7375 21.5532 19.7375H22.978C23.4971 19.7375 23.9958 19.5294 24.3635 19.1597C24.7304 18.7892 24.937 18.2869 24.937 17.7639V16.3285ZM23.1561 16.3285V17.7639C23.1561 17.8114 23.1374 17.8572 23.1035 17.8903C23.0706 17.9244 23.0252 17.9433 22.978 17.9433H21.5532C21.506 17.9433 21.4606 17.9244 21.4277 17.8903C21.3939 17.8572 21.3751 17.8114 21.3751 17.7639V16.3285C21.3751 16.2809 21.3939 16.2352 21.4277 16.202C21.4606 16.1679 21.506 16.1491 21.5532 16.1491H22.978C23.0252 16.1491 23.0706 16.1679 23.1035 16.202C23.1374 16.2352 23.1561 16.2809 23.1561 16.3285Z" fill="#A39E98"/>
<path fill-rule="evenodd" clip-rule="evenodd" d="M32.0539 16.3285C32.0539 15.8055 31.8473 15.3031 31.4805 14.9326C31.1127 14.563 30.614 14.3549 30.0949 14.3549H28.6702C28.151 14.3549 27.6524 14.563 27.2846 14.9326C26.9178 15.3031 26.7112 15.8055 26.7112 16.3285V17.7639C26.7112 18.2869 26.9178 18.7892 27.2846 19.1597C27.6524 19.5294 28.151 19.7375 28.6702 19.7375H30.0949C30.614 19.7375 31.1127 19.5294 31.4805 19.1597C31.8473 18.7892 32.0539 18.2869 32.0539 17.7639V16.3285ZM30.273 16.3285V17.7639C30.273 17.8114 30.2543 17.8572 30.2205 17.8903C30.1875 17.9244 30.1421 17.9433 30.0949 17.9433H28.6702C28.623 17.9433 28.5776 17.9244 28.5446 17.8903C28.5108 17.8572 28.4921 17.8114 28.4921 17.7639V16.3285C28.4921 16.2809 28.5108 16.2352 28.5446 16.202C28.5776 16.1679 28.623 16.1491 28.6702 16.1491H30.0949C30.1421 16.1491 30.1875 16.1679 30.2205 16.202C30.2543 16.2352 30.273 16.2809 30.273 16.3285Z" fill="#A39E98"/>
<path fill-rule="evenodd" clip-rule="evenodd" d="M23.614 37.6812H4.45261C3.27178 37.6812 2.13904 37.2084 1.30373 36.3677C0.469309 35.5262 0 34.385 0 33.1953V8.07454C0 5.59745 1.99388 3.58868 4.45261 3.58868H7.12417V2.69151C7.12417 1.2049 8.32014 0 9.79573 0C11.2713 0 12.4673 1.2049 12.4673 2.69151V3.58868H24.9346V2.69151C24.9346 1.2049 26.1306 0 27.6062 0C29.0818 0 30.2777 1.2049 30.2777 2.69151V3.58868H32.9493C35.408 3.58868 37.4019 5.59745 37.4019 8.07454V23.7903C39.5774 25.6017 40.964 28.3389 40.964 31.401C40.964 36.8477 36.5746 41.2699 31.1682 41.2699C28.1289 41.2699 25.4119 39.873 23.614 37.6812ZM31.1682 23.3264C35.5915 23.3264 39.1829 26.9447 39.1829 31.401C39.1829 35.8572 35.5915 39.4755 31.1682 39.4755C26.745 39.4755 23.1536 35.8572 23.1536 31.401C23.1536 26.9447 26.745 23.3264 31.1682 23.3264ZM35.6209 22.6096V12.5604H1.78104V33.1953C1.78104 33.9095 2.06245 34.594 2.56381 35.0982C3.06428 35.6033 3.74375 35.8868 4.45261 35.8868H22.442C21.7581 34.5411 21.3725 33.0159 21.3725 31.401C21.3725 25.9543 25.7619 21.5321 31.1682 21.5321C32.7712 21.5321 34.2851 21.9206 35.6209 22.6096ZM30.2777 5.38303V6.2802C30.2777 7.76681 29.0818 8.97171 27.6062 8.97171C26.1306 8.97171 24.9346 7.76681 24.9346 6.2802V5.38303H12.4673V6.2802C12.4673 7.76681 11.2713 8.97171 9.79573 8.97171C8.32014 8.97171 7.12417 7.76681 7.12417 6.2802V5.38303H4.45261C2.97701 5.38303 1.78104 6.58793 1.78104 8.07454V10.7661H35.6209V8.07454C35.6209 6.58793 34.4249 5.38303 32.9493 5.38303H30.2777ZM28.4967 2.69151V6.2802C28.4967 6.77544 28.0977 7.17737 27.6062 7.17737C27.1146 7.17737 26.7156 6.77544 26.7156 6.2802V2.69151C26.7156 2.19627 27.1146 1.79434 27.6062 1.79434C28.0977 1.79434 28.4967 2.19627 28.4967 2.69151ZM10.6863 2.69151V6.2802C10.6863 6.77544 10.2873 7.17737 9.79573 7.17737C9.30417 7.17737 8.90521 6.77544 8.90521 6.2802V2.69151C8.90521 2.19627 9.30417 1.79434 9.79573 1.79434C10.2873 1.79434 10.6863 2.19627 10.6863 2.69151Z" fill="#A39E98"/>
</svg>
