<svg width="61" height="61" viewBox="0 0 61 61" fill="none" xmlns="http://www.w3.org/2000/svg">
<g clip-path="url(#clip0_244_99)">
<path d="M14.2969 30.5C14.2969 27.4778 15.1295 24.6466 16.5762 22.2225V11.9397H6.29337C2.2122 17.24 0 23.6997 0 30.5C0 37.3003 2.2122 43.76 6.29337 49.0603H16.5762V38.7775C15.1295 36.3534 14.2969 33.5223 14.2969 30.5Z" fill="#FBBD00"/>
<path d="M30.5 46.7031L23.3516 53.8516L30.5 61C37.3004 61 43.76 58.7878 49.0603 54.7066V44.4348H38.7885C36.3431 45.8867 33.5001 46.7031 30.5 46.7031Z" fill="#0F9D58"/>
<path d="M16.5758 38.7776L6.29297 49.0604C7.10098 50.1098 7.98083 51.1147 8.93289 52.0669C14.6936 57.8275 22.3528 61.0001 30.4996 61.0001V46.7032C24.5874 46.7032 19.4056 43.5197 16.5758 38.7776Z" fill="#31AA52"/>
<path d="M61 30.5C61 28.6444 60.832 26.7853 60.5006 24.9746L60.2324 23.5093H30.5V37.8062H44.9699C43.5647 40.6013 41.4042 42.8818 38.7884 44.4349L49.0602 54.7067C50.1096 53.8987 51.1145 53.0189 52.0667 52.0668C57.8274 46.306 61 38.6468 61 30.5Z" fill="#3C79E6"/>
<path d="M41.9574 19.0426L43.221 20.3062L53.3304 10.1969L52.0668 8.93328C46.3061 3.1726 38.647 0 30.5 0L23.3516 7.14844L30.5 14.2969C34.8279 14.2969 38.8969 15.9822 41.9574 19.0426Z" fill="#CF2D48"/>
<path d="M30.4997 14.2969V0C22.3529 0 14.6937 3.1726 8.93289 8.93316C7.98083 9.88522 7.10098 10.8902 6.29297 11.9397L16.5758 22.2225C19.4057 17.4803 24.5875 14.2969 30.4997 14.2969Z" fill="#EB4132"/>
</g>
<defs>
<clipPath id="clip0_244_99">
<rect width="61" height="61" fill="white"/>
</clipPath>
</defs>
</svg>
