<svg width="46" height="42" viewBox="0 0 46 42" fill="none" xmlns="http://www.w3.org/2000/svg">
<path d="M35.0199 37.9936H3.04832C1.4084 37.9936 0.0742188 36.6594 0.0742188 35.0195V6.02207C0.0742188 4.38215 1.4084 3.04797 3.04832 3.04797H5.27889C5.68946 3.04797 6.02241 3.38092 6.02241 3.7915V5.24308C6.02241 5.65849 6.34361 6.00772 6.73857 6.02155C7.15093 6.03939 7.50946 5.70756 7.50946 5.27855V3.7915C7.50946 3.38092 7.84234 3.04797 8.25298 3.04797H13.4577C13.8682 3.04797 14.2012 3.38092 14.2012 3.7915V5.24308C14.2012 5.65849 14.5224 6.00772 14.9173 6.02155C15.3325 6.03939 15.6882 5.70459 15.6882 5.27855V3.7915C15.6882 3.38092 16.0211 3.04797 16.4317 3.04797H21.6364C22.047 3.04797 22.3799 3.38092 22.3799 3.7915V5.24308C22.3799 5.65849 22.7011 6.00772 23.0961 6.02155C23.5073 6.03932 23.867 5.70845 23.867 5.27855V3.7915C23.867 3.38092 24.1999 3.04797 24.6105 3.04797H29.8152C30.2258 3.04797 30.5587 3.38092 30.5587 3.7915V5.24308C30.5587 5.65849 30.8799 6.00772 31.2749 6.02155C31.6886 6.03939 32.0458 5.70622 32.0458 5.27855V3.7915C32.0458 3.38092 32.3787 3.04797 32.7893 3.04797H35.0199C36.6598 3.04797 37.9939 4.38215 37.9939 6.02207V35.0195C37.9939 36.6594 36.6598 37.9936 35.0199 37.9936ZM3.04832 4.53502C2.22836 4.53502 1.56127 5.20211 1.56127 6.02207V35.0195C1.56127 35.8395 2.22836 36.5066 3.04832 36.5066H35.0199C35.8398 36.5066 36.5069 35.8395 36.5069 35.0195V6.02207C36.5069 5.20211 35.8398 4.53502 35.0199 4.53502H33.5328V5.27855C33.5328 6.53986 32.4916 7.55143 31.2228 7.50771C30.0165 7.46547 29.0717 6.47071 29.0717 5.24308V4.53502H25.354V5.27855C25.354 6.54053 24.3121 7.55143 23.0441 7.50771C21.8378 7.46547 20.8929 6.47071 20.8929 5.24308V4.53502H17.1753V5.27855C17.1753 6.53889 16.1349 7.5515 14.8653 7.50771C13.659 7.46547 12.7141 6.47071 12.7141 5.24308V4.53502H8.99651V5.27855C8.99651 6.53659 7.95862 7.5515 6.68653 7.50771C5.48023 7.46547 4.53536 6.47071 4.53536 5.24308V4.53502H3.04832Z" fill="#A39E98"/>
<path d="M37.2504 11.9708H0.817743C0.407095 11.9708 0.0742188 11.6379 0.0742188 11.2272C0.0742188 10.8166 0.407095 10.4837 0.817743 10.4837H37.2504C37.661 10.4837 37.9939 10.8166 37.9939 11.2272C37.9939 11.6379 37.661 11.9708 37.2504 11.9708Z" fill="#A39E98"/>
<path d="M31.3009 7.50958C30.0709 7.50958 29.0703 6.50895 29.0703 5.27901V2.30491C29.0703 1.07498 30.0709 0.0743408 31.3009 0.0743408C32.5334 0.0743408 33.5315 1.07252 33.5315 2.30491V5.27901C33.5315 6.50895 32.5308 7.50958 31.3009 7.50958ZM31.3009 1.56139C30.8909 1.56139 30.5574 1.89493 30.5574 2.30491V5.27901C30.5574 5.68899 30.8909 6.02253 31.3009 6.02253C31.7109 6.02253 32.0444 5.68899 32.0444 5.27901V2.30491C32.0444 1.89456 31.7114 1.56139 31.3009 1.56139Z" fill="#A39E98"/>
<path d="M23.1251 7.50958C21.8952 7.50958 20.8945 6.50895 20.8945 5.27901V2.30491C20.8945 1.07498 21.8952 0.0743408 23.1251 0.0743408C24.3576 0.0743408 25.3557 1.07252 25.3557 2.30491V5.27901C25.3557 6.50895 24.355 7.50958 23.1251 7.50958ZM23.1251 1.56139C22.7151 1.56139 22.3816 1.89493 22.3816 2.30491V5.27901C22.3816 5.68899 22.7151 6.02253 23.1251 6.02253C23.5351 6.02253 23.8686 5.68899 23.8686 5.27901V2.30491C23.8686 1.89456 23.5356 1.56139 23.1251 1.56139Z" fill="#A39E98"/>
<path d="M14.9454 7.50958C13.7155 7.50958 12.7148 6.50895 12.7148 5.27901V2.30491C12.7148 1.07498 13.7155 0.0743408 14.9454 0.0743408C16.1779 0.0743408 17.176 1.07252 17.176 2.30491V5.27901C17.176 6.50895 16.1754 7.50958 14.9454 7.50958ZM14.9454 1.56139C14.5354 1.56139 14.2019 1.89493 14.2019 2.30491V5.27901C14.2019 5.68899 14.5354 6.02253 14.9454 6.02253C15.3554 6.02253 15.6889 5.68899 15.6889 5.27901V2.30491C15.6889 1.89456 15.3559 1.56139 14.9454 1.56139Z" fill="#A39E98"/>
<path d="M6.76597 7.50958C5.53604 7.50958 4.5354 6.50895 4.5354 5.27901V2.30491C4.5354 1.07498 5.53604 0.0743408 6.76597 0.0743408C7.99836 0.0743408 8.99655 1.07252 8.99655 2.30491V5.27901C8.99655 6.50895 7.99591 7.50958 6.76597 7.50958ZM6.76597 1.56139C6.35599 1.56139 6.02245 1.89493 6.02245 2.30491V5.27901C6.02245 5.68899 6.35599 6.02253 6.76597 6.02253C7.17595 6.02253 7.5095 5.68899 7.5095 5.27901V2.30491C7.5095 1.89456 7.17647 1.56139 6.76597 1.56139Z" fill="#A39E98"/>
<path d="M9.73849 19.406H6.02087C5.61022 19.406 5.27734 19.073 5.27734 18.6624V14.9448C5.27734 14.5342 5.61022 14.2013 6.02087 14.2013H9.73849C10.1491 14.2013 10.482 14.5342 10.482 14.9448V18.6624C10.482 19.073 10.1491 19.406 9.73849 19.406ZM6.76439 17.9189H8.99496V15.6883H6.76439V17.9189Z" fill="#A39E98"/>
<path d="M17.176 19.406H13.4584C13.0477 19.406 12.7148 19.073 12.7148 18.6624V14.9448C12.7148 14.5342 13.0477 14.2013 13.4584 14.2013H17.176C17.5866 14.2013 17.9195 14.5342 17.9195 14.9448V18.6624C17.9195 19.073 17.5866 19.406 17.176 19.406ZM14.2019 17.9189H16.4325V15.6883H14.2019V17.9189Z" fill="#A39E98"/>
<path d="M24.6096 19.406H20.892C20.4814 19.406 20.1484 19.073 20.1484 18.6624V14.9448C20.1484 14.5342 20.4814 14.2013 20.892 14.2013H24.6096C25.0202 14.2013 25.3531 14.5342 25.3531 14.9448V18.6624C25.3531 19.073 25.0202 19.406 24.6096 19.406ZM21.6355 17.9189H23.8661V15.6883H21.6355V17.9189Z" fill="#A39E98"/>
<path d="M32.0471 19.406H28.3295C27.9189 19.406 27.5859 19.073 27.5859 18.6624V14.9448C27.5859 14.5342 27.9189 14.2013 28.3295 14.2013H32.0471C32.4577 14.2013 32.7906 14.5342 32.7906 14.9448V18.6624C32.7906 19.073 32.4577 19.406 32.0471 19.406ZM29.073 17.9189H31.3036V15.6883H29.073V17.9189Z" fill="#A39E98"/>
<path d="M24.6096 26.8415H20.892C20.4814 26.8415 20.1484 26.5086 20.1484 26.098V22.3804C20.1484 21.9698 20.4814 21.6368 20.892 21.6368H24.6096C25.0202 21.6368 25.3531 21.9698 25.3531 22.3804V26.098C25.3531 26.5086 25.0202 26.8415 24.6096 26.8415ZM21.6355 25.3545H23.8661V23.1239H21.6355V25.3545Z" fill="#A39E98"/>
<path d="M32.0471 26.8415H28.3295C27.9189 26.8415 27.5859 26.5086 27.5859 26.098V22.3804C27.5859 21.9698 27.9189 21.6368 28.3295 21.6368H32.0471C32.4577 21.6368 32.7906 21.9698 32.7906 22.3804V26.098C32.7906 26.5086 32.4577 26.8415 32.0471 26.8415ZM29.073 25.3545H31.3036V23.1239H29.073V25.3545Z" fill="#A39E98"/>
<path d="M24.6096 34.2761H20.892C20.4814 34.2761 20.1484 33.9431 20.1484 33.5326V29.8149C20.1484 29.4044 20.4814 29.0714 20.892 29.0714H24.6096C25.0202 29.0714 25.3531 29.4044 25.3531 29.8149V33.5326C25.3531 33.9431 25.0202 34.2761 24.6096 34.2761ZM21.6355 32.789H23.8661V30.5585H21.6355V32.789Z" fill="#A39E98"/>
<path d="M32.0471 34.2761H28.3295C27.9189 34.2761 27.5859 33.9431 27.5859 33.5326V29.8149C27.5859 29.4044 27.9189 29.0714 28.3295 29.0714H32.0471C32.4577 29.0714 32.7906 29.4044 32.7906 29.8149V33.5326C32.7906 33.9431 32.4577 34.2761 32.0471 34.2761ZM29.073 32.789H31.3036V30.5585H29.073V32.789Z" fill="#A39E98"/>
<path d="M9.73849 26.8415H6.02087C5.61022 26.8415 5.27734 26.5086 5.27734 26.098V22.3804C5.27734 21.9698 5.61022 21.6368 6.02087 21.6368H9.73849C10.1491 21.6368 10.482 21.9698 10.482 22.3804V26.098C10.482 26.5086 10.1491 26.8415 9.73849 26.8415ZM6.76439 25.3545H8.99496V23.1239H6.76439V25.3545Z" fill="#A39E98"/>
<path d="M17.176 26.8415H13.4584C13.0477 26.8415 12.7148 26.5086 12.7148 26.098V22.3804C12.7148 21.9698 13.0477 21.6368 13.4584 21.6368H17.176C17.5866 21.6368 17.9195 21.9698 17.9195 22.3804V26.098C17.9195 26.5086 17.5866 26.8415 17.176 26.8415ZM14.2019 25.3545H16.4325V23.1239H14.2019V25.3545Z" fill="#A39E98"/>
<path d="M9.73849 34.2761H6.02087C5.61022 34.2761 5.27734 33.9431 5.27734 33.5326V29.8149C5.27734 29.4044 5.61022 29.0714 6.02087 29.0714H9.73849C10.1491 29.0714 10.482 29.4044 10.482 29.8149V33.5326C10.482 33.9431 10.1491 34.2761 9.73849 34.2761ZM6.76439 32.789H8.99496V30.5585H6.76439V32.789Z" fill="#A39E98"/>
<path d="M17.176 34.2761H13.4584C13.0477 34.2761 12.7148 33.9431 12.7148 33.5326V29.8149C12.7148 29.4044 13.0477 29.0714 13.4584 29.0714H17.176C17.5866 29.0714 17.9195 29.4044 17.9195 29.8149V33.5326C17.9195 33.9431 17.5866 34.2761 17.176 34.2761ZM14.2019 32.789H16.4325V30.5585H14.2019V32.789Z" fill="#A39E98"/>
<circle cx="34.7031" cy="30.3828" r="10.25" fill="white" stroke="#A39E98" stroke-width="1.5"/>
<g clip-path="url(#clip0_656_2)">
<path d="M38.0781 27.8828H37.7031V26.3828C37.7031 24.7283 36.3576 23.3828 34.7031 23.3828C33.0486 23.3828 31.7031 24.7283 31.7031 26.3828V27.8828H31.3281C30.7081 27.8828 30.2031 28.3873 30.2031 29.0078V34.2578C30.2031 34.8783 30.7081 35.3828 31.3281 35.3828H38.0781C38.6981 35.3828 39.2031 34.8783 39.2031 34.2578V29.0078C39.2031 28.3873 38.6981 27.8828 38.0781 27.8828ZM32.7031 26.3828C32.7031 25.2798 33.6001 24.3828 34.7031 24.3828C35.8061 24.3828 36.7031 25.2798 36.7031 26.3828V27.8828H32.7031V26.3828ZM35.2031 31.7438V32.8828C35.2031 33.1588 34.9796 33.3828 34.7031 33.3828C34.4266 33.3828 34.2031 33.1588 34.2031 32.8828V31.7438C33.9056 31.5703 33.7031 31.2513 33.7031 30.8828C33.7031 30.3313 34.1516 29.8828 34.7031 29.8828C35.2546 29.8828 35.7031 30.3313 35.7031 30.8828C35.7031 31.2513 35.5006 31.5703 35.2031 31.7438Z" fill="#A39E98"/>
</g>
<defs>
<clipPath id="clip0_656_2">
<rect width="12" height="12" fill="white" transform="translate(28.7031 23.3828)"/>
</clipPath>
</defs>
</svg>
