<svg width="34" height="28" viewBox="0 0 34 28" fill="none" xmlns="http://www.w3.org/2000/svg">
<path d="M33.4437 15.0772C33.4971 16.3524 33.0425 17.5967 32.1796 18.5371C31.3167 19.4775 30.1161 20.0372 28.841 20.0935C28.7664 20.0969 28.692 20.0986 28.6177 20.0986C28.2789 20.0984 27.9412 20.0618 27.6102 19.9893C26.6283 21.5054 25.3407 22.7999 23.8298 23.7899C22.319 24.78 20.6181 25.4437 18.836 25.7388C18.6253 26.3581 18.2047 26.8842 17.6472 27.2263C17.0896 27.5683 16.4301 27.7049 15.7826 27.6122C15.135 27.5196 14.5402 27.2037 14.1009 26.719C13.6616 26.2343 13.4055 25.6114 13.3768 24.9579C13.348 24.3044 13.5485 23.6614 13.9436 23.1401C14.3387 22.6187 14.9035 22.2518 15.5404 22.1027C16.1773 21.9536 16.8463 22.0318 17.4317 22.3236C18.0171 22.6154 18.4821 23.1026 18.7464 23.701C21.2554 23.2369 23.5219 21.9073 25.151 19.9436C26.7802 17.98 27.6686 15.5069 27.6615 12.9555C27.6615 6.9277 22.7576 2.02377 16.7298 2.02377C10.702 2.02377 5.79804 6.9277 5.79804 12.9555C5.79772 14.8194 6.27407 16.6524 7.18183 18.2803C7.21259 18.334 7.23569 18.3918 7.25043 18.4519C7.33812 18.6956 7.32874 18.9637 7.22426 19.2007C7.11977 19.4377 6.92817 19.6254 6.68911 19.7251C6.10374 19.9714 5.47502 20.0983 4.83992 20.0982C4.76518 20.0982 4.69028 20.0964 4.61522 20.093C3.34071 20.036 2.1408 19.476 1.2786 18.5356C0.416394 17.5953 -0.0377291 16.3514 0.015801 15.0767C0.0373204 14.5684 0.0253127 14.1149 0.0135749 13.6764C0.00264652 13.2634 -0.00875401 12.8364 0.00999958 12.3909C0.0659686 11.1463 0.60134 9.97163 1.50398 9.11293C2.40662 8.25424 3.60651 7.77812 4.85234 7.78429C6.8529 3.20707 11.4234 0 16.7298 0C22.0361 0 26.6067 3.20707 28.6073 7.78436C29.8532 7.77726 31.0535 8.25296 31.9563 9.11168C32.8591 9.97039 33.3942 11.1454 33.4495 12.3901C33.4683 12.8364 33.457 13.2633 33.4459 13.6762C33.4343 14.1148 33.4222 14.5686 33.4437 15.0772ZM25.2164 12.9555C25.2159 14.2557 24.9168 15.5383 24.3422 16.7046C23.7676 17.8709 22.9327 18.8896 21.9021 19.6822C20.8714 20.4748 19.6725 21.0201 18.3978 21.2761C17.1231 21.5321 15.8066 21.4918 14.5499 21.1585L11.1148 23.1423C10.9415 23.2424 10.7424 23.2888 10.5427 23.2757C10.3429 23.2626 10.1516 23.1906 9.9928 23.0688C9.83401 22.947 9.71492 22.7808 9.65059 22.5912C9.58626 22.4017 9.57958 22.1974 9.6314 22.004L10.5093 18.729C9.05544 17.1576 8.24649 15.0963 8.24343 12.9555C8.24343 8.27465 12.0502 4.46686 16.7298 4.46686C21.4093 4.46686 25.2164 8.27465 25.2164 12.9555ZM14.3704 12.9555C14.3704 12.6871 14.2638 12.4297 14.074 12.24C13.8842 12.0502 13.6269 11.9436 13.3585 11.9436H13.3568C13.1568 11.944 12.9613 12.0036 12.7952 12.1151C12.629 12.2265 12.4996 12.3846 12.4233 12.5696C12.347 12.7545 12.3272 12.9579 12.3665 13.1541C12.4058 13.3502 12.5023 13.5303 12.6439 13.6717C12.7855 13.813 12.9658 13.9092 13.162 13.9481C13.3582 13.987 13.5616 13.9668 13.7464 13.8902C13.9312 13.8135 14.0891 13.6838 14.2002 13.5175C14.3113 13.3511 14.3706 13.1555 14.3706 12.9555H14.3704ZM17.7418 12.9555C17.7418 12.9224 17.74 12.8893 17.7365 12.8563C17.7333 12.8233 17.7283 12.7904 17.7217 12.7578C17.7156 12.7254 17.7075 12.6934 17.6973 12.662C17.688 12.6303 17.6765 12.5993 17.6643 12.5683C17.6522 12.5372 17.6374 12.5082 17.6218 12.4792C17.6064 12.4501 17.5895 12.4217 17.5712 12.3942C17.5528 12.3665 17.533 12.3397 17.5118 12.314C17.491 12.2882 17.4688 12.2636 17.4451 12.2404C17.4222 12.2168 17.3972 12.1946 17.3716 12.173C17.3459 12.1527 17.3189 12.1325 17.2912 12.1143C17.2638 12.096 17.2354 12.0791 17.2063 12.0637C17.1772 12.0482 17.1469 12.034 17.1165 12.0212C17.0861 12.0085 17.0551 11.9974 17.0235 11.9881C16.9604 11.9679 16.8952 11.9547 16.8292 11.949C16.7301 11.9395 16.6301 11.9442 16.5324 11.9632C16.4998 11.9698 16.4677 11.9781 16.436 11.9881C16.4044 11.9974 16.3733 12.0084 16.3429 12.0212C16.3125 12.034 16.2822 12.0482 16.2532 12.0637C16.2242 12.0792 16.1958 12.0961 16.1681 12.1143C16.1404 12.1325 16.1135 12.1527 16.0886 12.173C16.0623 12.1946 16.038 12.2168 16.0144 12.2404C15.9907 12.2636 15.9684 12.2882 15.9475 12.314C15.9266 12.3397 15.9071 12.3665 15.8889 12.3942C15.8703 12.4217 15.8532 12.45 15.8376 12.4792C15.8221 12.5081 15.8081 12.5379 15.7957 12.5683C15.7829 12.5989 15.7717 12.6302 15.762 12.662C15.7526 12.6931 15.7445 12.7255 15.7378 12.7578C15.7311 12.7904 15.7261 12.8233 15.7229 12.8563C15.7196 12.8894 15.7182 12.9224 15.7182 12.9555C15.7182 12.9885 15.7196 13.0223 15.7229 13.0553C15.7262 13.0882 15.7312 13.1208 15.7378 13.1531C15.7445 13.1855 15.7526 13.2179 15.762 13.2496C15.7717 13.2812 15.7829 13.3123 15.7957 13.3427C15.8081 13.3733 15.8221 13.4033 15.8376 13.4324C15.8531 13.4614 15.8707 13.4898 15.8889 13.5174C15.9071 13.5449 15.9266 13.5715 15.9475 13.597C15.9685 13.6229 15.9908 13.6476 16.0144 13.6712C16.038 13.6942 16.0623 13.7171 16.0886 13.738C16.1139 13.7591 16.1405 13.7787 16.1681 13.7967C16.1958 13.8149 16.2241 13.8325 16.2532 13.848C16.3118 13.8785 16.3729 13.9038 16.436 13.9235C16.4676 13.933 16.5 13.9411 16.5324 13.9478C16.5974 13.9611 16.6637 13.9677 16.73 13.9674C16.9981 13.9667 17.255 13.8602 17.4451 13.6712C17.4917 13.6239 17.534 13.5724 17.5712 13.5174C17.5895 13.4898 17.6063 13.4614 17.6218 13.4324C17.6374 13.4034 17.6515 13.3731 17.6643 13.3427C17.6772 13.3123 17.688 13.2806 17.6973 13.2496C17.7074 13.218 17.7156 13.1858 17.7217 13.1531C17.7283 13.1208 17.7332 13.0882 17.7365 13.0553C17.7399 13.0221 17.7416 12.9887 17.7416 12.9554L17.7418 12.9555ZM21.1148 12.9555C21.1148 12.6871 21.0082 12.4297 20.8184 12.24C20.6287 12.0502 20.3713 11.9436 20.1029 11.9436H20.101C19.9009 11.944 19.7055 12.0037 19.5393 12.1151C19.3732 12.2265 19.2438 12.3847 19.1675 12.5696C19.0912 12.7545 19.0714 12.9579 19.1107 13.1541C19.15 13.3503 19.2465 13.5304 19.3881 13.6717C19.5297 13.813 19.71 13.9092 19.9062 13.9481C20.1025 13.987 20.3058 13.9668 20.4906 13.8902C20.6754 13.8135 20.8333 13.6838 20.9444 13.5175C21.0555 13.3511 21.1148 13.1555 21.1148 12.9555Z" fill="white"/>
</svg>
