<svg width="36" height="36" viewBox="0 0 36 36" fill="none" xmlns="http://www.w3.org/2000/svg">
<g clip-path="url(#clip0_219_1322)">
<path d="M14.9251 27.4391L10.6831 31.6811C8.92442 33.4398 6.0764 33.4398 4.31921 31.6815C2.56167 29.9239 2.56167 27.0756 4.31886 25.3184L12.8044 16.8328C14.5616 15.0756 17.4099 15.0756 19.1671 16.8328C19.7529 17.4186 20.7027 17.4186 21.2885 16.8328C21.8742 16.2471 21.8742 15.2973 21.2885 14.7115C18.3596 11.7827 13.6119 11.7827 10.6831 14.7115L2.19759 23.197C-0.731227 26.1258 -0.731227 30.8736 2.19759 33.8024C5.12605 36.7327 9.87414 36.7327 12.8045 33.8024L17.0465 29.5603C17.6323 28.9745 17.6323 28.0248 17.0465 27.439C16.4608 26.8532 15.5109 26.8533 14.9251 27.4391Z" fill="black"/>
<path d="M33.8035 2.19661C30.8747 -0.732203 26.1254 -0.732203 23.1966 2.19661L18.1071 7.28614C17.5213 7.87192 17.5213 8.8217 18.1071 9.40748C18.6929 9.99326 19.6427 9.99326 20.2284 9.40748L25.318 4.31795C27.0752 2.56069 29.9249 2.56069 31.6822 4.31795C33.4394 6.07514 33.4394 8.92345 31.6822 10.6806L22.3491 20.0138C20.5919 21.771 17.7436 21.771 15.9865 20.0138C15.4007 19.428 14.4509 19.428 13.8651 20.0138C13.2793 20.5995 13.2793 21.5493 13.8651 22.1351C16.7939 25.0639 21.5417 25.0639 24.4705 22.1351L33.8035 12.802C36.7323 9.87323 36.7323 5.12542 33.8035 2.19661Z" fill="black"/>
</g>
<defs>
<clipPath id="clip0_219_1322">
<rect width="36" height="36" fill="white"/>
</clipPath>
</defs>
</svg>
