<svg width="64" height="63" viewBox="0 0 64 63" fill="none" xmlns="http://www.w3.org/2000/svg">
<g clip-path="url(#clip0_244_96)">
<path d="M51.437 3.51787H47.3836V2.18655C47.3836 1.45132 46.7787 0.855225 46.0325 0.855225C45.2864 0.855225 44.6814 1.45132 44.6814 2.18655V3.51787H14.957V2.18655C14.957 1.45132 14.352 0.855225 13.6058 0.855225C12.8597 0.855225 12.2547 1.45132 12.2547 2.18655V3.51787H8.20139C3.73124 3.51787 0.0947266 7.10112 0.0947266 11.5058V51.4454C0.0947266 55.8501 3.73124 59.4333 8.20139 59.4333H51.437C55.9071 59.4333 59.5436 55.8501 59.5436 51.4454V11.5058C59.5436 7.10112 55.9071 3.51787 51.437 3.51787ZM2.79695 11.5058C2.79695 8.56956 5.22152 6.18051 8.20139 6.18051H12.2547V7.74481C10.683 8.29498 9.55251 9.77075 9.55251 11.5058C9.55251 13.7081 11.3708 15.4998 13.6058 15.4998C15.8409 15.4998 17.6592 13.7081 17.6592 11.5058C17.6592 9.77075 16.5286 8.29498 14.957 7.74481V6.18051H44.6814V7.74481C43.1097 8.29498 41.9792 9.77075 41.9792 11.5058C41.9792 13.7081 43.7974 15.4998 46.0325 15.4998C48.2676 15.4998 50.0858 13.7081 50.0858 11.5058C50.0858 9.77075 48.9553 8.29498 47.3836 7.74481V6.18051H51.437C54.4168 6.18051 56.8414 8.56956 56.8414 11.5058V44.7888C56.8414 47.725 54.4168 50.1141 51.437 50.1141H8.20139C5.22152 50.1141 2.79695 47.725 2.79695 44.7888V11.5058ZM14.957 11.5058C14.957 12.24 14.351 12.8371 13.6058 12.8371C12.8607 12.8371 12.2547 12.24 12.2547 11.5058C12.2547 11.2625 12.3263 11.0372 12.4425 10.8405C12.6766 11.2365 13.1073 11.5058 13.6058 11.5058C14.1044 11.5058 14.5351 11.2365 14.7691 10.8405C14.8853 11.0372 14.957 11.2625 14.957 11.5058ZM47.3836 11.5058C47.3836 12.24 46.7776 12.8371 46.0325 12.8371C45.2874 12.8371 44.6814 12.24 44.6814 11.5058C44.6814 11.2625 44.753 11.0372 44.8692 10.8405C45.1033 11.2365 45.534 11.5058 46.0325 11.5058C46.5311 11.5058 46.9617 11.2365 47.1958 10.8405C47.312 11.0372 47.3836 11.2625 47.3836 11.5058ZM51.437 56.7707H8.20139C5.22152 56.7707 2.79695 54.3816 2.79695 51.4454V50.7362C4.23217 52.0039 6.12676 52.7767 8.20139 52.7767H51.437C53.5116 52.7767 55.4062 52.0039 56.8414 50.7362V51.4454C56.8414 54.3816 54.4168 56.7707 51.437 56.7707Z" fill="black"/>
<path d="M18.2055 24.8176C18.3248 22.9623 19.0307 21.5159 20.3232 20.4786C21.6356 19.4412 23.3059 18.9225 25.3341 18.9225C26.726 18.9225 27.9291 19.1719 28.9432 19.6706C29.9573 20.1693 30.7228 20.8476 31.2398 21.7055C31.7568 22.5633 32.0153 23.5308 32.0153 24.6081C32.0153 25.845 31.6872 26.9023 31.0311 27.7801C30.3749 28.6579 29.5894 29.2464 28.6747 29.5456V29.6653C29.8479 30.0244 30.7626 30.6828 31.4188 31.6403C32.075 32.578 32.4031 33.7849 32.4031 35.2612C32.4031 36.4382 32.1347 37.4856 31.5978 38.4032C31.0609 39.3209 30.2655 40.0491 29.2116 40.5877C28.1577 41.1064 26.8951 41.3658 25.4236 41.3658C23.2761 41.3658 21.5063 40.8171 20.1144 39.7199C18.7424 38.6027 18.0066 37.0068 17.9072 34.932H21.1882C21.2677 35.9893 21.6754 36.8572 22.4111 37.5354C23.1468 38.1938 24.141 38.5229 25.3938 38.5229C26.6067 38.5229 27.5413 38.1938 28.1975 37.5354C28.8537 36.8572 29.1818 35.9893 29.1818 34.932C29.1818 33.5356 28.7344 32.548 27.8396 31.9695C26.9647 31.371 25.6125 31.0718 23.7831 31.0718H23.0076V28.2589H23.813C25.4236 28.2389 26.6465 27.9696 27.4817 27.4509C28.3367 26.9322 28.7642 26.1143 28.7642 24.9971C28.7642 24.0396 28.456 23.2815 27.8396 22.7229C27.2232 22.1443 26.3482 21.8551 25.2148 21.8551C24.1013 21.8551 23.2363 22.1443 22.6199 22.7229C22.0035 23.2815 21.6356 23.9797 21.5163 24.8176H18.2055Z" fill="black"/>
<path d="M35.5275 23.1119V19.9998H41.7315V41.2461H38.3014V23.1119H35.5275Z" fill="black"/>
</g>
<defs>
<clipPath id="clip0_244_96">
<rect width="64" height="63" fill="white"/>
</clipPath>
</defs>
</svg>
