<svg width="60" height="60" viewBox="0 0 60 60" fill="none" xmlns="http://www.w3.org/2000/svg">
<g clip-path="url(#clip0_65_50)">
<mask id="mask0_65_50" style="mask-type:luminance" maskUnits="userSpaceOnUse" x="0" y="0" width="64" height="63">
<path d="M64 0H0V63H64V0Z" fill="white"/>
</mask>
<g mask="url(#mask0_65_50)">
<path d="M51.8934 3.51811H47.84V2.18679C47.84 1.45156 47.2351 0.855469 46.4889 0.855469C45.7428 0.855469 45.1378 1.45156 45.1378 2.18679V3.51811H15.4134V2.18679C15.4134 1.45156 14.8084 0.855469 14.0622 0.855469C13.3161 0.855469 12.7111 1.45156 12.7111 2.18679V3.51811H8.65781C4.18766 3.51811 0.551147 7.10136 0.551147 11.506V51.4456C0.551147 55.8503 4.18766 59.4335 8.65781 59.4335H51.8934C56.3635 59.4335 60 55.8503 60 51.4456V11.506C60 7.10136 56.3635 3.51811 51.8934 3.51811ZM3.25337 11.506C3.25337 8.5698 5.67794 6.18075 8.65781 6.18075H12.7111V7.74505C11.1394 8.29522 10.0089 9.77099 10.0089 11.506C10.0089 13.7083 11.8272 15.5 14.0622 15.5C16.2973 15.5 18.1156 13.7083 18.1156 11.506C18.1156 9.77099 16.985 8.29522 15.4134 7.74505V6.18075H45.1378V7.74505C43.5661 8.29522 42.4356 9.77099 42.4356 11.506C42.4356 13.7083 44.2538 15.5 46.4889 15.5C48.724 15.5 50.5422 13.7083 50.5422 11.506C50.5422 9.77099 49.4117 8.29522 47.84 7.74505V6.18075H51.8934C54.8732 6.18075 57.2978 8.5698 57.2978 11.506V44.789C57.2978 47.7252 54.8732 50.1143 51.8934 50.1143H8.65781C5.67794 50.1143 3.25337 47.7252 3.25337 44.789V11.506ZM15.4134 11.506C15.4134 12.2402 14.8074 12.8373 14.0622 12.8373C13.3171 12.8373 12.7111 12.2402 12.7111 11.506C12.7111 11.2627 12.7827 11.0374 12.8989 10.8407C13.133 11.2367 13.5637 11.506 14.0622 11.506C14.5608 11.506 14.9915 11.2367 15.2255 10.8407C15.3417 11.0374 15.4134 11.2627 15.4134 11.506ZM47.84 11.506C47.84 12.2402 47.234 12.8373 46.4889 12.8373C45.7438 12.8373 45.1378 12.2402 45.1378 11.506C45.1378 11.2627 45.2094 11.0374 45.3256 10.8407C45.5597 11.2367 45.9904 11.506 46.4889 11.506C46.9875 11.506 47.4181 11.2367 47.6522 10.8407C47.7684 11.0374 47.84 11.2627 47.84 11.506ZM51.8934 56.7709H8.65781C5.67794 56.7709 3.25337 54.3818 3.25337 51.4456V50.7364C4.68859 52.0041 6.58318 52.7769 8.65781 52.7769H51.8934C53.968 52.7769 55.8626 52.0041 57.2978 50.7364V51.4456C57.2978 54.3818 54.8732 56.7709 51.8934 56.7709Z" fill="black"/>
<path d="M18.6619 24.818C18.7812 22.9627 19.4871 21.5163 20.7796 20.479C22.092 19.4416 23.7623 18.9229 25.7905 18.9229C27.1824 18.9229 28.3855 19.1723 29.3996 19.671C30.4137 20.1697 31.1792 20.848 31.6962 21.7059C32.2132 22.5637 32.4717 23.5312 32.4717 24.6085C32.4717 25.8454 32.1436 26.9027 31.4875 27.7805C30.8313 28.6583 30.0458 29.2468 29.1311 29.546V29.6657C30.3043 30.0248 31.219 30.6832 31.8752 31.6407C32.5314 32.5784 32.8595 33.7853 32.8595 35.2616C32.8595 36.4386 32.5911 37.4859 32.0542 38.4035C31.5173 39.3212 30.7219 40.0495 29.668 40.5881C28.6141 41.1068 27.3515 41.3661 25.88 41.3661C23.7325 41.3661 21.9627 40.8174 20.5708 39.7202C19.1988 38.603 18.463 37.0072 18.3636 34.9324H21.6446C21.7241 35.9897 22.1318 36.8576 22.8675 37.5358C23.6032 38.1942 24.5974 38.5233 25.8502 38.5233C27.0631 38.5233 27.9977 38.1942 28.6539 37.5358C29.3101 36.8576 29.6382 35.9897 29.6382 34.9324C29.6382 33.536 29.1908 32.5484 28.296 31.9699C27.4211 31.3714 26.0689 31.0722 24.2395 31.0722H23.464V28.2593H24.2694C25.88 28.2393 27.1029 27.97 27.9381 27.4513C28.7931 26.9326 29.2206 26.1147 29.2206 24.9975C29.2206 24.04 28.9124 23.2819 28.296 22.7233C27.6796 22.1447 26.8046 21.8555 25.6712 21.8555C24.5577 21.8555 23.6927 22.1447 23.0763 22.7233C22.4599 23.2819 22.092 23.9801 21.9727 24.818H18.6619Z" fill="black"/>
<path d="M35.9839 23.1121V20H42.1879V41.2463H38.7578V23.1121H35.9839Z" fill="black"/>
</g>
</g>
<defs>
<clipPath id="clip0_65_50">
<rect width="60" height="60" fill="white"/>
</clipPath>
</defs>
</svg>
