<svg width="30" height="30" viewBox="0 0 30 30" fill="none" xmlns="http://www.w3.org/2000/svg">
<g clip-path="url(#clip0_219_1732)">
<path d="M15 0C12.0333 0 9.13319 0.879735 6.66645 2.52796C4.19972 4.17618 2.27713 6.51886 1.14181 9.25975C0.00649929 12.0006 -0.290551 15.0166 0.288228 17.9264C0.867006 20.8361 2.29562 23.5088 4.3934 25.6066C6.49119 27.7044 9.16394 29.133 12.0737 29.7118C14.9834 30.2906 17.9994 29.9935 20.7403 28.8582C23.4811 27.7229 25.8238 25.8003 27.472 23.3336C29.1203 20.8668 30 17.9667 30 15C29.9957 11.0231 28.414 7.21026 25.6019 4.39815C22.7897 1.58604 18.9769 0.00430135 15 0ZM15 23.75C14.7528 23.75 14.5111 23.6767 14.3055 23.5393C14.1 23.402 13.9398 23.2068 13.8452 22.9784C13.7505 22.7499 13.7258 22.4986 13.774 22.2561C13.8223 22.0137 13.9413 21.7909 14.1161 21.6161C14.2909 21.4413 14.5137 21.3223 14.7561 21.274C14.9986 21.2258 15.25 21.2505 15.4784 21.3452C15.7068 21.4398 15.902 21.6 16.0393 21.8055C16.1767 22.0111 16.25 22.2528 16.25 22.5C16.25 22.8315 16.1183 23.1495 15.8839 23.3839C15.6495 23.6183 15.3315 23.75 15 23.75ZM16.9088 15.875C16.704 15.9746 16.5327 16.1316 16.4157 16.327C16.2987 16.5223 16.2411 16.7475 16.25 16.975V17.5C16.25 17.8315 16.1183 18.1495 15.8839 18.3839C15.6495 18.6183 15.3315 18.75 15 18.75C14.6685 18.75 14.3505 18.6183 14.1161 18.3839C13.8817 18.1495 13.75 17.8315 13.75 17.5V16.975C13.7371 16.2514 13.9399 15.5403 14.3326 14.9323C14.7253 14.3244 15.2901 13.8471 15.955 13.5613C16.4858 13.3415 16.9247 12.9456 17.1979 12.4402C17.4711 11.9348 17.5619 11.3507 17.455 10.7863C17.3587 10.2916 17.1169 9.83699 16.7606 9.48066C16.4043 9.12433 15.9496 8.88253 15.455 8.78625C15.0938 8.7194 14.7224 8.73296 14.367 8.82596C14.0117 8.91896 13.6812 9.08912 13.3991 9.32434C13.1169 9.55956 12.8901 9.85406 12.7347 10.1869C12.5793 10.5197 12.4992 10.8827 12.5 11.25C12.5 11.5815 12.3683 11.8995 12.1339 12.1339C11.8995 12.3683 11.5815 12.5 11.25 12.5C10.9185 12.5 10.6005 12.3683 10.3661 12.1339C10.1317 11.8995 10 11.5815 10 11.25C10.0007 10.3445 10.2472 9.45618 10.7133 8.67986C11.1795 7.90355 11.8476 7.26838 12.6466 6.84217C13.4455 6.41597 14.3452 6.21472 15.2495 6.2599C16.1539 6.30509 17.029 6.59502 17.7815 7.09875C18.5339 7.60247 19.1355 8.30108 19.5219 9.12C19.9083 9.93891 20.0651 10.8474 19.9755 11.7484C19.8859 12.6495 19.5533 13.5093 19.0131 14.2361C18.473 14.9629 17.7457 15.5293 16.9088 15.875Z" fill="white"/>
</g>
<defs>
<clipPath id="clip0_219_1732">
<rect width="30" height="30" fill="white"/>
</clipPath>
</defs>
</svg>
