<svg width="13" height="13" viewBox="0 0 13 13" fill="none" xmlns="http://www.w3.org/2000/svg">
<g clip-path="url(#clip0_249_2473)">
<path d="M6.5 0C2.90746 0 0 2.90712 0 6.5C0 10.0925 2.90712 13 6.5 13C10.0925 13 13 10.0929 13 6.5C13 2.90746 10.0929 0 6.5 0ZM6.5 12.093C3.416 12.093 0.906979 9.58402 0.906979 6.5C0.906979 3.41598 3.416 0.906979 6.5 0.906979C9.58402 0.906979 12.093 3.41598 12.093 6.5C12.093 9.58402 9.58402 12.093 6.5 12.093Z" fill="#797979"/>
<path d="M6.30846 8.22461C5.9491 8.22461 5.6582 8.52407 5.6582 8.88339C5.6582 9.23422 5.94055 9.54223 6.30846 9.54223C6.67637 9.54223 6.96724 9.23422 6.96724 8.88339C6.96724 8.52407 6.66779 8.22461 6.30846 8.22461Z" fill="#797979"/>
<path d="M6.41795 3.23633C5.26288 3.23633 4.73242 3.92083 4.73242 4.38284C4.73242 4.71653 5.01477 4.87055 5.24577 4.87055C5.7078 4.87055 5.51958 4.21171 6.39228 4.21171C6.82006 4.21171 7.16233 4.39996 7.16233 4.79354C7.16233 5.25554 6.68318 5.52077 6.40084 5.76033C6.1527 5.9742 5.8276 6.32502 5.8276 7.06084C5.8276 7.50574 5.94739 7.63409 6.29816 7.63409C6.71739 7.63409 6.80295 7.44587 6.80295 7.28326C6.80295 6.83837 6.81151 6.5817 7.2821 6.21379C7.5131 6.03412 8.24034 5.4523 8.24034 4.64805C8.24034 3.8438 7.5131 3.23633 6.41795 3.23633Z" fill="#797979"/>
</g>
<defs>
<clipPath id="clip0_249_2473">
<rect width="13" height="13" fill="white"/>
</clipPath>
</defs>
</svg>
