<svg width="34" height="34" viewBox="0 0 34 34" fill="none" xmlns="http://www.w3.org/2000/svg">
<g clip-path="url(#clip0_244_109)">
<path d="M27.0936 15.5656L31.5029 11.1031C33.8936 8.71245 33.8936 4.83433 31.5029 2.4437C30.3342 1.27495 28.7936 0.637452 27.1998 0.637452C25.6061 0.637452 24.0123 1.27495 22.8967 2.4437L18.4342 6.85308C17.2654 8.02183 16.6279 9.61558 16.6279 11.1562C16.6279 12.6968 17.2123 14.2906 18.4342 15.4593C19.5498 16.6281 21.0904 17.2656 22.7373 17.2656C24.3842 17.3187 25.9248 16.6812 27.0936 15.5656ZM19.7623 8.1812L24.2248 3.77183C25.0217 2.97495 26.0842 2.49683 27.2529 2.49683C28.4217 2.49683 29.4311 2.92183 30.2811 3.77183C31.1311 4.62183 31.5029 5.68433 31.5029 6.79995C31.5029 7.86245 31.0779 8.97808 30.2811 9.82808L25.8717 14.2374C25.0748 15.0343 24.0123 15.4593 22.8436 15.4593C21.9404 15.4593 21.1436 15.1937 20.4529 14.7156L22.0998 13.0687C22.4717 12.6968 22.4717 12.1125 22.0998 11.7406C21.7279 11.3687 21.1436 11.3687 20.7717 11.7406L19.2311 13.3343C18.1686 11.6875 18.3811 9.56245 19.7623 8.1812Z" fill="black"/>
<path d="M11.1028 31.5562L15.5122 27.0937C17.9028 24.7031 17.9028 20.8249 15.5122 18.4343C14.3435 17.2656 12.8028 16.6281 11.2091 16.6281C9.56221 16.6281 8.02158 17.2656 6.90596 18.4343L2.44346 22.8437C1.27471 24.0124 0.637208 25.6062 0.637208 27.1468C0.637208 28.6874 1.22158 30.2812 2.44346 31.4499C3.55908 32.6187 5.09971 33.2562 6.69346 33.2562C8.39346 33.3624 9.93408 32.7249 11.1028 31.5562ZM3.77158 30.2281C2.12471 28.5812 2.12471 25.8718 3.77158 24.2249L8.23408 19.8156C9.03096 19.0187 10.0935 18.5406 11.2622 18.5406C12.006 18.5406 12.7497 18.7531 13.3872 19.1249L11.8466 20.6656C11.6872 20.8249 11.581 21.0906 11.581 21.3031C11.581 21.5156 11.6872 21.7812 11.8466 21.9406C12.2185 22.3124 12.8028 22.3124 13.1747 21.9406L14.7685 20.3468C15.2466 21.0906 15.5122 21.9406 15.5122 22.7906C15.5122 23.8531 15.0872 24.9687 14.2903 25.8187L9.88096 30.2281C9.08408 31.0249 7.96846 31.4499 6.85283 31.4499C5.63096 31.4499 4.56846 31.0249 3.77158 30.2281Z" fill="black"/>
<path d="M25.8716 21.1969C25.8716 21.7281 26.2966 22.1531 26.8278 22.1531L31.0247 22.1531C31.556 22.1531 31.981 21.7281 31.981 21.1969C31.981 20.6656 31.556 20.2406 31.0247 20.2406L26.8278 20.2406C26.2966 20.2937 25.8716 20.7187 25.8716 21.1969Z" fill="black"/>
<path d="M21.1966 25.8718C20.6653 25.8718 20.2403 26.2968 20.2403 26.8281L20.2403 31.025C20.2403 31.5562 20.6653 31.9812 21.1966 31.9812C21.7278 31.9812 22.1528 31.5562 22.1528 31.025L22.1528 26.8281C22.1528 26.2968 21.7278 25.8718 21.1966 25.8718Z" fill="black"/>
<path d="M23.2155 23.2687C23.2155 23.5344 23.3218 23.7469 23.4812 23.9062L27.0937 27.4656C27.4655 27.8375 28.0499 27.8375 28.4218 27.4656C28.7937 27.0937 28.7937 26.5094 28.4218 26.1375L24.8093 22.5781C24.4374 22.2062 23.853 22.2062 23.4812 22.5781C23.3218 22.7906 23.2155 23.0031 23.2155 23.2687Z" fill="black"/>
<path d="M8.07471 12.8031C8.07471 12.2718 7.64971 11.8468 7.11846 11.8468L2.92158 11.8468C2.39033 11.8468 1.96533 12.2718 1.96533 12.8031C1.96533 13.3343 2.39033 13.7593 2.92158 13.7593L7.11846 13.7593C7.70283 13.7062 8.07471 13.3343 8.07471 12.8031Z" fill="black"/>
<path d="M12.803 6.7468C13.3343 6.7468 13.7593 6.3218 13.7593 5.79055L13.7593 2.97493C13.7593 2.44368 13.3343 2.01868 12.803 2.01868C12.2718 2.01868 11.8468 2.44368 11.8468 2.97493L11.8468 5.79055C11.8468 6.3218 12.2718 6.7468 12.803 6.7468Z" fill="black"/>
<path d="M11.1029 8.87185L7.54356 5.31248C7.17168 4.9406 6.58731 4.9406 6.21543 5.31248C6.05606 5.47185 5.94981 5.73748 5.94981 5.94998C5.94981 6.16248 6.05606 6.4281 6.21543 6.58748L9.77481 10.1469C10.1467 10.5187 10.7311 10.5187 11.1029 10.1469C11.4748 9.8281 11.4748 9.24373 11.1029 8.87185Z" fill="black"/>
</g>
<defs>
<clipPath id="clip0_244_109">
<rect width="34" height="34" fill="white" transform="translate(34 1.48619e-06) rotate(90)"/>
</clipPath>
</defs>
</svg>
