<svg width="24" height="24" viewBox="0 0 24 24" fill="none" xmlns="http://www.w3.org/2000/svg">
<g clip-path="url(#clip0_207_4548)">
<path d="M23.62 19.0501L14.29 2.61008C14.0664 2.21714 13.7428 1.89043 13.3519 1.66316C12.9611 1.43589 12.5171 1.31616 12.065 1.31616C11.6129 1.31616 11.1689 1.43589 10.7781 1.66316C10.3873 1.89043 10.0636 2.21714 9.84 2.61008L0.500005 19.0501C0.279725 19.4397 0.16543 19.8802 0.168518 20.3277C0.171606 20.7753 0.291969 21.2142 0.517603 21.6007C0.743238 21.9872 1.06626 22.3078 1.45445 22.5306C1.84265 22.7533 2.28245 22.8703 2.73001 22.8701H21.39C21.8376 22.8703 22.2774 22.7533 22.6656 22.5306C23.0538 22.3078 23.3768 21.9872 23.6024 21.6007C23.828 21.2142 23.9484 20.7753 23.9515 20.3277C23.9546 19.8802 23.8403 19.4397 23.62 19.0501Z" fill="#BE1D1D"/>
<path d="M13.2201 19.1601C12.9473 19.4096 12.5896 19.5455 12.2201 19.5401C11.8525 19.5443 11.4963 19.4126 11.2201 19.1701C11.0736 19.0386 10.9581 18.8761 10.882 18.6946C10.8059 18.513 10.7711 18.3168 10.7801 18.1201C10.7787 17.9324 10.8149 17.7463 10.8864 17.5728C10.9579 17.3992 11.0633 17.2417 11.1965 17.1094C11.3297 16.9772 11.488 16.8728 11.662 16.8026C11.836 16.7323 12.0224 16.6974 12.2101 16.7001C12.3955 16.6993 12.5793 16.7351 12.7509 16.8055C12.9225 16.8758 13.0785 16.9793 13.2101 17.1101C13.3449 17.239 13.4518 17.3944 13.5241 17.5664C13.5963 17.7384 13.6324 17.9235 13.6301 18.1101C13.6421 18.3044 13.6116 18.499 13.5408 18.6803C13.47 18.8616 13.3606 19.0254 13.2201 19.1601Z" fill="white"/>
<path d="M13.6 9.63989L13.23 13.8299C13.2235 14.2305 13.1456 14.6267 13 14.9999C12.9325 15.1484 12.8222 15.2734 12.6833 15.3589C12.5443 15.4444 12.383 15.4866 12.22 15.4799C12.0593 15.4881 11.8998 15.4476 11.7625 15.3638C11.6251 15.2799 11.5162 15.1566 11.45 15.0099C11.2956 14.6167 11.2045 14.2016 11.18 13.7799L10.91 9.69989C10.86 8.88989 10.83 8.32989 10.83 7.97989C10.8068 7.54198 10.9537 7.11204 11.24 6.77989C11.3786 6.63428 11.5466 6.51976 11.7328 6.4439C11.919 6.36805 12.1191 6.3326 12.32 6.33989C12.5456 6.32816 12.7695 6.38492 12.9622 6.5027C13.1549 6.62049 13.3076 6.7938 13.4 6.99989C13.5977 7.4812 13.6864 8.00025 13.66 8.51989C13.6586 8.89399 13.6386 9.26778 13.6 9.63989Z" fill="white"/>
</g>
<defs>
<clipPath id="clip0_207_4548">
<rect width="24" height="24" fill="white"/>
</clipPath>
</defs>
</svg>
