<svg width="26" height="28" viewBox="0 0 26 28" fill="none" xmlns="http://www.w3.org/2000/svg">
<g clip-path="url(#clip0_207_4252)">
<path d="M16.7578 8.20312C15.7778 8.20312 14.9805 7.34448 14.9805 6.28906V0H5.89062C4.35058 0 3.09766 1.3493 3.09766 3.00781V24.9922C3.09766 26.6507 4.35058 28 5.89062 28H20.1094C21.6494 28 22.9023 26.6507 22.9023 24.9922V8.20312H16.7578ZM7.26172 19.6875H10.9545C11.3752 19.6875 11.7163 20.0548 11.7163 20.5078C11.7163 20.9608 11.3752 21.3281 10.9545 21.3281H7.26172C6.84105 21.3281 6.5 20.9608 6.5 20.5078C6.5 20.0548 6.84105 19.6875 7.26172 19.6875ZM6.5 16.1328C6.5 15.6798 6.84105 15.3125 7.26172 15.3125H18.4336C18.8543 15.3125 19.1953 15.6798 19.1953 16.1328C19.1953 16.5858 18.8543 16.9531 18.4336 16.9531H7.26172C6.84105 16.9531 6.5 16.5858 6.5 16.1328ZM18.4336 10.9375C18.8543 10.9375 19.1953 11.3048 19.1953 11.7578C19.1953 12.2108 18.8543 12.5781 18.4336 12.5781H7.26172C6.84105 12.5781 6.5 12.2108 6.5 11.7578C6.5 11.3048 6.84105 10.9375 7.26172 10.9375H18.4336Z" fill="white"/>
<path d="M16.5039 6.2887C16.5039 6.43947 16.6178 6.56213 16.7578 6.56213H22.5628C22.4235 6.28509 22.2442 6.03062 22.0289 5.81116L17.1324 0.822461C16.9424 0.628867 16.7307 0.467375 16.504 0.339844V6.2887H16.5039Z" fill="white"/>
</g>
<defs>
<clipPath id="clip0_207_4252">
<rect width="26" height="28" fill="white"/>
</clipPath>
</defs>
</svg>
