<svg width="29" height="29" viewBox="0 0 29 29" fill="none" xmlns="http://www.w3.org/2000/svg">
<g clip-path="url(#clip0_207_4437)">
<path d="M28.8157 13.9355C28.5566 13.5811 22.3837 5.25781 14.4999 5.25781C6.61598 5.25781 0.442817 13.5811 0.184026 13.9352C-0.0613419 14.2714 -0.0613419 14.7274 0.184026 15.0636C0.442817 15.418 6.61598 23.7413 14.4999 23.7413C22.3837 23.7413 28.5566 15.418 28.8157 15.0639C29.0614 14.7277 29.0614 14.2714 28.8157 13.9355ZM14.4999 21.8292C8.69254 21.8292 3.66279 16.3049 2.17387 14.4989C3.66086 12.6913 8.68008 7.16989 14.4999 7.16989C20.3069 7.16989 25.3363 12.6933 26.8258 14.5002C25.3389 16.3077 20.3196 21.8292 14.4999 21.8292Z" fill="#797979"/>
<path d="M14.4998 8.76367C11.3369 8.76367 8.76355 11.337 8.76355 14.5C8.76355 17.6629 11.3369 20.2363 14.4998 20.2363C17.6628 20.2363 20.2361 17.6629 20.2361 14.5C20.2361 11.337 17.6628 8.76367 14.4998 8.76367ZM14.4998 18.3241C12.3911 18.3241 10.6757 16.6086 10.6757 14.5C10.6757 12.3913 12.3912 10.6758 14.4998 10.6758C16.6085 10.6758 18.324 12.3913 18.324 14.5C18.324 16.6086 16.6086 18.3241 14.4998 18.3241Z" fill="#797979"/>
</g>
<defs>
<clipPath id="clip0_207_4437">
<rect width="29" height="29" fill="white"/>
</clipPath>
</defs>
</svg>
