<svg width="28" height="28" viewBox="0 0 28 28" fill="none" xmlns="http://www.w3.org/2000/svg">
<g clip-path="url(#clip0_219_1693)">
<path d="M6.07003 21.9289C1.71723 17.5612 1.71723 10.4459 6.07003 6.07814L8.39202 8.40013V1.4043H1.39618L4.09895 4.10706C-1.36632 9.56486 -1.36632 18.4422 4.09895 23.9074C7.54834 27.3494 12.3491 28.6261 16.799 27.7152V24.8333C13.0883 25.7964 8.97438 24.8333 6.07003 21.9289Z" fill="white"/>
<path d="M23.8992 4.10722C20.4499 0.650367 15.6491 -0.626355 11.1992 0.284522V3.16648C14.9099 2.20334 19.0313 3.18141 21.9282 6.0783C26.2959 10.446 26.2959 17.5613 21.9282 21.9291L19.6062 19.6071V26.6104H26.6095L23.9067 23.9076C29.3645 18.4423 29.3645 9.56502 23.8992 4.10722Z" fill="white"/>
</g>
<defs>
<clipPath id="clip0_219_1693">
<rect width="28" height="28" fill="white"/>
</clipPath>
</defs>
</svg>
