<svg width="17" height="18" viewBox="0 0 17 18" fill="none" xmlns="http://www.w3.org/2000/svg">
<g clip-path="url(#clip0_195_3925)">
<path d="M16.9557 6.90472C16.8444 6.54024 16.5391 6.28137 16.1779 6.2469L11.2712 5.77516L9.33096 0.966735C9.1879 0.61434 8.86209 0.38623 8.50009 0.38623C8.13809 0.38623 7.81227 0.61434 7.66921 0.967559L5.72898 5.77516L0.821537 6.2469C0.460962 6.28219 0.15642 6.54024 0.044486 6.90472C-0.0674477 7.2692 0.0359256 7.66898 0.308691 7.92098L4.01755 11.365L2.92389 16.466C2.84387 16.841 2.98135 17.2287 3.27526 17.4537C3.43324 17.5745 3.61806 17.636 3.80445 17.636C3.96515 17.636 4.12455 17.5902 4.26762 17.4995L8.50009 14.8211L12.731 17.4995C13.0406 17.6967 13.4309 17.6787 13.7241 17.4537C14.0182 17.228 14.1555 16.8402 14.0755 16.466L12.9818 11.365L16.6907 7.92167C16.9635 7.66898 17.0676 7.26989 16.9557 6.90472Z" fill="#FFC107"/>
</g>
<defs>
<clipPath id="clip0_195_3925">
<rect width="17" height="18" fill="white"/>
</clipPath>
</defs>
</svg>
