<?xml version="1.0" encoding="utf-8"?>
<!DOCTYPE svg PUBLIC "-//W3C//DTD SVG 1.1//EN" "http://www.w3.org/Graphics/SVG/1.1/DTD/svg11.dtd">
<svg version="1.1" id="Shapes_xA0_Image_1_" xmlns="http://www.w3.org/2000/svg" xmlns:xlink="http://www.w3.org/1999/xlink"
	 x="0px" y="0px" viewBox="0 0 1024 1024" enable-background="new 0 0 1024 1024" xml:space="preserve">
<path fill="none" stroke="#000000" stroke-miterlimit="10" d="M513.4,1013.3c-163.8,0-327.7,0-491.5,0c-9.7,0-8.8,0.9-8.8-8.9
	c0-243.7,0.2-487.3-0.3-731c-0.1-39.6,27.7-76.4,69.6-82.3c3-0.4,6-0.5,9-0.5c35,0,70,0.1,105-0.1c5.1,0,6.5,1.4,6.5,6.5
	c-0.2,26.8,0.1,53.7-0.2,80.5c-0.2,15.2,3.9,28.2,15.9,38.2c2.7,2.2,5,4.8,7.4,7.4c8,8.6,18.1,12.4,29.6,12.4
	c30.7,0.2,61.3,0.2,92,0c11.2-0.1,21.2-3.9,29.1-12.2c3.4-3.6,7-7.2,10.6-10.6c9-8.4,12.7-18.9,12.7-31c0.1-28.2,0-56.3,0-84.5
	c0-6.6,0-6.6,6.6-6.6c71.5,0,143,0,214.5,0c6.6,0,6.6,0,6.6,6.7c0,26.8,0.2,53.7-0.1,80.5c-0.2,15,5.1,26.8,15.4,38
	c13.6,14.7,28.9,20.8,48.7,20.1c25.6-1,51.3-0.4,77-0.2c13.9,0.1,24.8-5.1,35.4-14.4c15.9-14,22.1-30.4,21.1-51.3
	c-1.1-24.3-0.1-48.7-0.4-73c0-5.1,1.4-6.5,6.5-6.5c34.7,0.2,69.3,0,104,0.1c42.3,0.2,78.3,36,78.3,78.3c0.1,246,0,492,0,738
	c0,6.4,0,6.4-7.3,6.4C842,1013.3,677.7,1013.3,513.4,1013.3z M439.5,678.9c1.6-1,2.2-1.5,3-1.8c11.8-5.8,21.5-14.2,29-24.8
	c24.3-34.1,24.3-70.9,8.6-107.8c-13.3-31.3-39.3-49.3-71-59.4c-27.6-8.8-56-9.4-84.5-5.6c-20.3,2.7-39.2,9.6-55.5,22.2
	c-35.5,27.2-48.4,65.1-50.4,108c-0.2,3.7,2.1,3.9,4.8,3.9c22.2,0,44.3-0.1,66.5,0c3.8,0,5.4-1.1,5.3-5.1c-0.1-7.7,1-15.3,3-22.7
	c5.4-20,16.5-34.7,37.8-39.7c8.1-1.9,16.3-2.1,24.4-1.3c21.4,2.1,36.3,13.1,43.5,33.7c3.5,10.1,3.9,20.4,2.9,31
	c-2.2,23.4-16.2,39.7-39.1,44.6c-13.2,2.8-26.6,4.1-40.2,4c-3.7,0-5,1.2-4.9,4.9c0.1,16.5,0.2,33,0,49.5c0,4,1.5,5.2,5.3,5.1
	c12.9-0.3,25.6,0.9,38.3,3c26.3,4.2,43.5,18.8,49.2,42c3.3,13.5,3,27.1-0.2,40.6c-2.3,9.7-6.8,18.4-13.8,25.7
	c-15.4,16.1-34.5,21.6-56,18.9c-27.5-3.4-43.5-18-50.5-44.8c-1.9-7.3-3.1-14.7-2.8-22.2c0.2-4-1.1-5.6-5.4-5.6
	c-23.7,0.2-47.3,0.2-71,0c-4,0-5.4,1.2-4.9,5.2c1.4,13.2,2.7,26.5,5.9,39.5c11.1,45.2,38.2,75.6,83.4,88.2
	c36.7,10.3,73.8,10.1,110.5,0.1c24.5-6.6,44.7-20.1,61-39.8c24.5-29.7,34.4-63.9,31.4-101.9c-2.2-27.4-12.5-51.3-33.6-69.8
	C460.7,689.3,451.9,682,439.5,678.9z M755,692.5c0-68.6-0.1-137.3,0.1-205.9c0-5.1-1.4-6.5-6.5-6.4c-18.3,0.3-36.7,0.4-55,0
	c-5.7-0.1-7.2,1.9-8.2,7c-5.9,32.1-24.4,53-56.3,61.1c-17.5,4.5-35.6,5-53.5,5.8c-3.9,0.2-5.2,1.4-5.2,5.3c0.2,15.3,0.2,30.7,0,46
	c-0.1,4.3,1.6,5.4,5.6,5.3c14.2-0.2,28.3-0.1,42.5-0.1c15.5,0,31,0.1,46.5-0.1c4.1,0,5.9,1.3,5.5,5.4c-0.1,1.7,0,3.3,0,5
	c0,92.1,0,184.3,0,276.4c0,7.2,0,7.2,7,7.2c23.5,0,47,0,70.5,0c7,0,7,0,7-7.2C755,829.1,755,760.8,755,692.5z"/>
<path fill="none" stroke="#000000" stroke-miterlimit="10" d="M376.7,199.2c0,24.2,0,48.3,0,72.5c-0.1,23.1-17.4,40.5-40.4,40.6
	c-23.3,0.1-46.6,0.1-70,0c-22.8-0.1-40.3-17.4-40.3-40.1c-0.1-48.5-0.1-96.9,0-145.4c0-22.4,17.5-40,39.9-40.1
	c23.7-0.1,47.3-0.1,71,0c22.4,0.1,39.8,17.7,39.8,40.1C376.8,150.9,376.7,175.1,376.7,199.2z"/>
<path fill="none" stroke="#000000" stroke-miterlimit="10" d="M801.7,199.6c0,24,0,48,0,72c0,23.4-17.3,40.7-40.7,40.8
	c-23.2,0.1-46.3,0.1-69.5,0c-23.1-0.1-40.5-17.4-40.5-40.5c-0.1-48.3-0.1-96.6,0-144.9c0-22.7,17.5-40.2,40.2-40.3
	c23.3-0.1,46.6-0.1,70,0c23.1,0.1,40.4,17.4,40.5,40.5C801.8,151.3,801.7,175.4,801.7,199.6z"/>
</svg>
